<?xml version="1.0" encoding="utf-8"?>
<!-- Generator: Adobe Illustrator 25.4.1, SVG Export Plug-In . SVG Version: 6.00 Build 0)  -->
<svg version="1.1" id="Layer_1" xmlns="http://www.w3.org/2000/svg" xmlns:xlink="http://www.w3.org/1999/xlink" x="0px" y="0px"
	 viewBox="0 0 250 250" style="enable-background:new 0 0 250 250;" xml:space="preserve">
<g>
	<g>
		<path d="M26.1,163.3c-4-1.4-8.1-2.5-11.8-4.7c-1.8-1.1-3.2-0.9-3.8,1.3c-0.3,1-0.3,2.4-1.7,2.2c-1.6-0.2-1-1.7-1-2.6
			c0-6.2,0-12.5,0.1-18.7c0-1-0.3-2.5,1.1-2.6c2-0.3,1.4,1.6,1.6,2.6c0.7,3.4,1.2,6.9,2.7,10.1c2.9,6.1,7.5,9.8,14.6,9.9
			c5.5,0.1,10.2-1.6,12.5-6.7c2.5-5.3,2-10.7-1.9-15.4c-2.6-3.1-5.9-5.3-9.2-7.4c-4.4-2.8-8.8-5.5-12.9-8.6c-6.7-5-9.5-11.6-7.9-20
			c1-5.4,4.1-9.2,9-11.2c6.9-2.8,13.9-3.1,20.7,0.8c2.4,1.4,5.4,4.4,6.8-1.1c0.1-0.5,0.8-0.8,1.5-0.6c0.8,0.2,0.7,0.9,0.7,1.5
			c-0.1,5.6-0.1,11.2-0.2,16.9c0,0.8-0.1,1.6-1.2,1.6c-1,0-1.3-0.6-1.4-1.4c-0.5-3-1.2-5.9-2.6-8.7c-2.9-5.9-7.5-9.2-14.2-9
			c-4.9,0.1-9,2.1-11,6.9c-1.9,4.7-1.3,9.2,2.1,13.2c2.3,2.7,5.3,4.5,8.3,6.4c5.2,3.2,10.4,6.4,15.3,10.1c7,5.4,9.9,12.3,8,20.8
			c-1.9,8.4-8.1,12.5-16.3,13.8c-0.6,0.1-1.1,0.5-1.6,0.8C30.4,163.3,28.3,163.3,26.1,163.3z"/>
		<path d="M123.1,161.4c0.5-1.2,0.6-1.4,0.7-1.4c8-0.8,7.6-6.5,7.6-12.3c-0.1-15,0-30.1,0-45.1c0-7.6,0-7.6-7-10.2
			c-0.3-0.1-0.5-0.7-0.8-1c1-1.6,2.6-0.9,3.8-0.9c14.3,0,28.5,0,42.8-0.1c2.7,0,3.8,0.4,3.4,3.5c-0.5,3.9-0.2,7.9-0.3,11.8
			c0,0.9,0.7,2.4-0.9,2.6c-1.6,0.2-1.4-1.1-1.7-2.2c-2.7-12.7-3.3-13.3-16.2-13.3c-2.3,0-4.6,0.1-6.9,0c-4.4-0.2-6.5,1.8-6.5,6.2
			c0,7.4,0.1,14.9,0,22.3c0,2.2,0.6,3.2,3.1,3.3c8.3,0.4,10.4-1.3,12.4-9.9c0.3-1.2-0.4-3.4,1.6-3.2c2.5,0.1,1.1,2.4,1.1,3.6
			c0.2,7.3,0.2,14.6,0.2,21.9c0,0.9,0.7,2.5-0.8,2.7c-1.8,0.3-1.6-1.4-1.8-2.5c-1.8-9.5-3.9-11.1-13-10.6c-1.8,0.1-2.8,0.4-2.8,2.5
			c0.1,8.2,0,16.4,0.1,24.6c0.1,3.2,1.8,5,5.2,5c4.1,0,8.3,0.1,12.4,0c8.1-0.3,11.1-2.7,13.1-10.7c0.4-1.6,0.6-3.3,0.9-4.9
			c0.2-0.9,0.4-1.9,1.7-1.7c1.1,0.2,0.8,1.1,0.8,1.8c-0.1,5.3-0.1,10.6,0.5,15.9c0.4,3-2.1,2-3.5,2c-13.8,0.1-27.6,0-41.4,0
			C128.4,161.4,126.1,161.4,123.1,161.4z"/>
		<path d="M220.9,161.4c0.5-1.1,0.5-1.4,0.6-1.4c7.7-3.3,7.8-3.3,4.6-11.6c-1.7-4.5-2-10.7-5.8-12.9c-3.5-2.1-9.2-0.7-13.9-0.7
			c-9.9,0-9.9,0-13.3,9c-0.9,2.3-1.8,4.5-2.2,6.9c-1,5.3,0.3,7,5.6,8.4c0.9,0.2,2.3,0,2.7,2.3c-6.1,0-12.1,0.1-18-0.1
			c-1.8-0.1-1.3-1.6-0.2-2.1c5.5-2.5,6.8-7.9,8.7-12.8c6.9-17.6,13.8-35.3,20.7-52.9c0.5-1.2,0.5-3.2,2-3.3c2-0.1,1.9,2,2.4,3.3
			c7.4,18.8,14.7,37.6,22.1,56.3c1.4,3.5,2.3,7.4,6.3,9.1c0.7,0.3,0.9,0.9,0.8,1.5c0,1.1-1,1-1.7,1
			C235.3,161.4,228.4,161.4,220.9,161.4z M208.9,102.9c-3.7,9.5-6.9,18-10.3,26.5c-0.8,2-0.8,3.1,1.9,3.1c5.7-0.1,11.3-0.1,17,0
			c2.1,0,2.3-0.9,1.7-2.5C215.9,121.3,212.6,112.7,208.9,102.9z"/>
		<path d="M79.5,90.5c-1.2,1.3-1.5,1.8-1.8,2c-6.8,2.3-7,2.8-4.5,9.5c5.8,15.3,11.7,30.6,17.5,46c1.7-0.9,1.8-2.6,2.3-3.9
			c4.7-11.9,9.3-23.7,13.9-35.6c0.8-2,1.5-4,2-6c1.5-6.2,0.3-8.1-6-9.6c-0.8-0.2-1.9-0.2-2-2.3c6,0,12,0,17.9,0c0.3,0,0.9,0.4,1,0.7
			c0.3,0.8-0.2,1.4-1,1.8c-4.3,2-5.8,6-7.4,10c-7.2,18.5-14.5,37-21.8,55.5c-0.5,1.2-0.6,3.1-2,3.3c-2,0.2-1.9-2.1-2.4-3.3
			c-7.4-18.8-14.7-37.6-22.1-56.4c-1.5-3.8-2.5-7.9-7.2-9.4c-0.6-0.2-1-0.7-0.9-1.4c0.2-0.7,0.8-0.8,1.4-0.8
			C63.8,90.5,71.1,90.5,79.5,90.5z"/>
	</g>
</g>
</svg>
