<?xml version="1.0" encoding="utf-8"?>
<!-- Generator: Adobe Illustrator 25.4.1, SVG Export Plug-In . SVG Version: 6.00 Build 0)  -->
<svg version="1.1" id="Layer_1" xmlns="http://www.w3.org/2000/svg" xmlns:xlink="http://www.w3.org/1999/xlink" x="0px" y="0px"
	 viewBox="0 0 250 250" style="enable-background:new 0 0 250 250;" xml:space="preserve">
<style type="text/css">
	.st0{fill:#852B3D;}
	.st1{fill:#7C7C7D;}
	.st2{fill:#FEFEFE;}
	.st3{fill:#525D4D;}
	.st4{fill:#FFFFFF;}
</style>
<g>
	<path class="st0" d="M3.4,70.4c3.4,0,6.9,0,10.3,0c13.1,0,26.2,0,39.3,0c7.2,0,9.1,2,9.2,9.1c0,2.3-0.7,2.7-2.8,2.7
		c-9.1-0.1-18.3,0.1-27.4-0.1c-3.1-0.1-3.7,0.9-3.5,3.7c0.2,5.3,0.2,10.7,0,16c-0.1,2.4,0.8,2.9,3,2.8c8.2-0.1,16.3,0,24.5-0.1
		c1.9,0,2.5,0.5,2.4,2.4c-0.1,2.3-0.2,4.7,0,7c0.2,2.2-0.7,2.5-2.6,2.5c-8.2-0.1-16.3,0-24.5-0.1c-2.1,0-2.8,0.4-2.8,2.7
		c0.1,10.1,0,20.2,0.1,30.3c0,2.2-0.6,2.8-2.7,2.7c-3.5-0.2-7-0.2-10.5,0c-2.5,0.2-3.2-0.4-3.2-3.1c0.1-21.5,0-43.1,0.1-64.6
		C12.2,77.7,9.7,73,3.4,70.4z"/>
	<path class="st0" d="M154.4,138.4c-3.3,10-11.9,15.5-22.5,15c-20.7-1.1-30.8-15.9-29.1-35.6c1-12.4,7.3-21.3,19.4-25.4
		c11.7-3.9,24.7-0.5,31.2,8c5.6,7.3,6.3,15.9,6.1,24.6c0,2-1.6,1.3-2.6,1.3c-12.1,0-24.3,0.1-36.4,0c-2.7,0-3.3,0.5-2.5,3.2
		c2.2,7.9,8.6,12.8,17.5,13.1C142,142.9,148.1,141.4,154.4,138.4z M131.4,117c3.3,0,6.6,0,9.9,0c5.1-0.1,4.8,1,3.7-4.7
		c-1.6-8.1-8-12.3-15.5-11.1c-6.7,1.1-10.8,7.7-11.7,14.4c-0.2,1.6,0.9,1.4,1.8,1.4C123.5,117,127.4,117,131.4,117z"/>
	<path class="st1" d="M192.2,109.5c3.3-3.1,5.3-7.1,7.3-11c2.3-4.7,5.5-6.5,10.6-6c3.6,0.4,7.3,0.1,11.4,0.1
		c-1.3,1.7-3.4,1.9-4.2,3.6l0,0c-2,0.7-2.9,2.5-3.9,4.1c-4.3,6.9-8.6,13.8-12.8,20.7c-0.4,0.6-0.8,1.1-0.5,1.9
		c-3.9,3.1-6.2,7.1-7.3,11.9c-1.6,0.3-1.9,1.9-2.6,2.9c-9.4,14.6-18.7,29.2-27.9,43.9c-1.7,2.7-3.7,4-6.9,3.8
		c-4.6-0.2-9.2,0-13.9-0.3c5.1-2.6,7.9-7.1,10.7-11.6c10-15.9,20.1-31.8,30.2-47.7c0.9-1.4,2.2-2.7,2.3-4.6
		C188.1,117.8,190.7,114,192.2,109.5z"/>
	<path class="st0" d="M68.1,64.2c4.8,0,9.6-0.2,14.4,0.1c4.8,0.3,6.7,2.5,6.7,7.3c0,26,0,52,0,78c0,1.9-0.5,2.5-2.4,2.4
		c-3.4-0.2-6.8-0.2-10.2,0c-2.2,0.1-2.7-0.6-2.7-2.7c0.1-17.3,0.1-34.5,0-51.8c0-7.4-0.1-14.7,0-22.1c0.1-4.5-1.2-8-5.3-10.1
		C68.3,65.1,67.9,64.9,68.1,64.2z"/>
	<path class="st1" d="M197.5,142.6c-2.1,1.2-2.6,3.6-4.2,5.2c-0.9,0.9-1.9,1.5-3.1,2.4c-0.2-2.1,1.4-3.3,1.8-4.9
		c0.7-0.4,1-1,1.1-1.7c0.9-1.4,2.3-2.6,2.2-4.5c3.5-3.5,5.7-7.7,7.4-12.2c2.3-1.5,3.1-4.1,4.5-6.2c5.5-8.2,9.7-17.3,16.3-24.9
		c0.5-0.2,1.3-0.6,1-1c-0.6-0.8-1,0.1-1.4,0.5c-2.3,1.2-3.6,3.2-4.9,5.2c-4.9,7.9-9.8,15.8-14.6,23.7c-0.5,0.8-1.1,1.6-0.8,2.7
		c-3.1,1.8-3.8,5.4-5.9,7.9c-0.9,1.1-2,2.4-1.6,4.1c-1.9,0.5-2.1,2.4-2.9,3.8c-0.7,0.3-1.1,0.9-1.1,1.7c-2,2.8-4.1,5.5-6,8.3
		c-0.6,0.9-1.2,1.8-2.2,1.2s-0.1-1.7,0.3-2.3c2.9-5,5.9-10,8.8-15c0.3-0.6,0.6-1.2,0.9-1.8c2.9-3.8,5.5-7.8,7.4-12.2
		c2.8-3.6,4.9-7.6,7.3-11.5c3.2-5.1,6.4-10.2,9.7-15.3l0,0c0.2,0,0.4,0.2,0.5,0.1c3.9-3.4,8.5-4.2,13.3-3.3
		c-9.8,6.1-13.1,17.4-19.5,26.3c-2,2.7-3.6,5.7-5.4,8.6c-0.6,1-1.5,1.9-1.1,3.2C201.7,134.3,199.1,138.1,197.5,142.6z"/>
	<path class="st0" d="M192.2,109.5c-1.5,4.6-4.2,8.3-7.5,11.6c-3.9-6.3-7.8-12.5-11.5-18.8c-2.4-4-5.4-7.5-10.5-9.8
		c6.2,0,11.7-0.1,17.2,0c1.9,0,3.1,1.3,4,2.9C186.6,100.2,189.4,104.8,192.2,109.5z"/>
	<path class="st1" d="M54.4,169.9c4.4-3.8,6.4-3.8,10.7-0.2c1.1,0.9,1.3,0.1,1.8-0.4c2-2.1,4.5-2.7,7.2-1.8c2.8,0.9,3.6,3.5,3.8,6
		c0.3,3.4,0.1,6.8,0.1,10.2c0,1.9-1.3,1.5-2.4,1.6c-1.3,0.1-2.3,0-2.2-1.8c0.1-2.7,0.1-5.4,0-8.1c-0.1-2-0.4-4.1-3-4.2
		c-2.7-0.2-3.8,1.8-4,4.1c-0.2,2.6-0.2,5.2-0.1,7.8c0.1,1.9-0.7,2.2-2.4,2.2c-1.8,0-2.4-0.6-2.3-2.3c0.1-2.7,0.1-5.4,0-8.1
		c-0.1-1.8-0.6-3.6-2.8-3.7c-2.2-0.1-3.4,1.2-3.8,3.2c-0.6,2.9-0.3,5.8-0.2,8.7c0,1.8-0.6,2.3-2.4,2.3c-1.8,0-2.3-0.6-2.3-2.4
		c0.1-3.1,0.1-6.2,0-9.3c0-1.4,0.6-3.1-1.6-3.9c-0.7-0.2-0.9-1.5,0.1-2.1C50.3,166.7,53.6,167.9,54.4,169.9z"/>
	<path class="st1" d="M87.4,169.4c5-3.2,8.8-3,11.5,0.3c2.9,3.4,2.6,10.5-0.6,13.8c-2.8,2.9-6.7,2.8-10.7-0.4
		c-1.1,0.3-0.3,1.8-1.5,2.2c-1.9,0.6-3.3-0.2-3.3-2.4c0-6.1,0-12.2,0-18.3c0-1.2,0.3-2.6-1.3-3.2c-0.7-0.3-0.6-0.9-0.5-1.5
		c0.1-0.8,0.7-0.7,1.3-0.8c4-0.6,5.1,0.3,5.1,4.3C87.4,165.2,87.4,167.1,87.4,169.4z M96.1,176.3c0-3.6-1.7-5.7-4.3-5.7
		c-2.7,0-4.4,2.3-4.4,5.7s1.8,5.7,4.4,5.8C94.4,182.1,96.1,179.7,96.1,176.3z"/>
	<path class="st0" d="M197.5,142.6c1.6-4.5,4.2-8.3,7.6-11.6c0.2,0.2,0.4,0.4,0.6,0.6c-0.3,1.7-1.5,2.9-2.5,4.1
		c-0.5,0.6-0.7,1.5,0.1,2c0.7,0.5,1.3-0.2,1.7-0.7c0.8-0.8,1.1-2.1,2.5-2.2c1.6,2.6,3.3,5.2,4.9,7.8c2.3,3.9,5.2,7.1,9.5,9.2
		c-5.4,0-10.7,0.1-16.1,0c-1.8,0-3.3-0.9-4.2-2.6C200.2,147,198.9,144.8,197.5,142.6z"/>
	<path class="st1" d="M123.3,167.1c5.7,0,9.4,3.6,9.4,9.1c0,5.7-3.7,9.5-9.5,9.5c-5.7,0-9.6-3.8-9.5-9.4
		C113.8,170.5,117.3,167.1,123.3,167.1z M127.8,176.2c-0.1-3.4-1.8-5.7-4.5-5.7c-2.8,0-4.8,2.3-4.8,5.8s2.1,6.2,4.9,6
		C126.1,182.1,127.8,179.8,127.8,176.2z"/>
	<path class="st1" d="M44.6,185.2c-0.7,0-1.5,0.2-1.6,0c-2.1-2.9-4-0.4-6,0.2c-3.6,1.1-7.1-0.6-7.9-3.9c-0.8-3.3,1.2-6.1,5-6.8
		c1.6-0.3,3.3-0.4,4.9-0.4c2.1-0.1,2.1-1.2,1.1-2.4c-1.6-2.1-3.8-1.8-6.1-1.4c-0.8,0.1-2.1,1.9-2.8-0.2c-0.6-1.8,0.6-2.3,2.1-2.7
		c1.9-0.5,3.8-0.6,5.8-0.4c3.2,0.3,5.2,2.1,5.6,5.3c0.3,2.2,0.2,4.4,0.4,6.7c0.1,1.4-0.6,3.2,1.6,3.9c0.5,0.2,0.6,1.1,0.3,1.6
		C46.4,185.7,45.3,185,44.6,185.2z M38.7,176.8c-3.7,0.2-5.3,1.2-5,3.4c0.2,1.9,1.6,2.3,3.1,2.2c2.1,0,3.9-2.1,4-4.2
		C40.8,176.5,39.8,176.7,38.7,176.8z"/>
	<path class="st1" d="M12.1,176.3c0-6.6,6-10.7,12.6-8.7c1.6,0.5,1.6,1.4,1.5,2.6c-0.2,1.7-1.3,0.9-2.1,0.7
		c-3.7-0.7-6.5,0.9-7.1,4.1c-0.7,3.4,1.2,6.3,4.4,7.1c1.1,0.3,2.1-0.1,3.1-0.3c0.7-0.2,1.8-0.9,1.9,0.7c0.1,1,0.4,2-1,2.6
		C18.7,187.7,12.1,183.4,12.1,176.3z"/>
	<path class="st1" d="M207.5,134.9c-1.4,0.1-1.7,1.4-2.5,2.2c-0.5,0.5-1,1.2-1.7,0.7c-0.8-0.5-0.5-1.4-0.1-2c1-1.3,2.1-2.5,2.5-4.1
		c3.8-4.9,6.5-10.5,9.8-15.7c3.3-5.1,6.4-10.4,9.7-15.6c2.7-4.1,6.1-7.1,11.3-7.7c-6.9,3.2-9.7,9.9-13.4,15.7
		c-5,7.8-9.8,15.7-14.7,23.6C207.8,132.9,207.2,133.7,207.5,134.9z"/>
	<path class="st1" d="M239.8,93.4c-6.7,4.3-9.5,11.6-13.6,17.9c-3.9,6-7.6,12.1-11.4,18.1c-0.4,0.6-0.6,1.8-1.6,1.2
		c-1.1-0.6-0.3-1.5,0.2-2.2c5.7-9.3,11.2-18.7,17-27.9C233.3,95.9,236.3,93.8,239.8,93.4z"/>
	<path class="st1" d="M109.6,176.8c0,2-0.1,4.1,0,6.1c0.1,1.8-0.5,2.3-2.3,2.3c-1.9,0-2.3-0.8-2.3-2.4c0.1-3.2,0.1-6.4,0-9.6
		c0-1.4,0.5-2.9-1.5-3.6c-0.7-0.2-0.7-1.5-0.2-1.7c1.5-0.8,3.2-0.5,4.8-0.2c1.4,0.2,1.5,1.3,1.5,2.4
		C109.6,172.4,109.6,174.6,109.6,176.8L109.6,176.8z"/>
	<path class="st1" d="M244.4,93.3c-7.3,5.3-10.1,13.8-15.1,20.7c-2.5,3.4-4,7.4-7.4,10.2c0.7-3.1,2.6-5.6,4.2-8.2
		c3.2-5.4,6.5-10.7,9.9-16C238,96.9,240.7,94.5,244.4,93.3z"/>
	<path class="st1" d="M233.4,114c3.8-6.8,6.6-14.2,13.2-19C241.5,100.8,238.5,108.1,233.4,114z"/>
	<path class="st1" d="M37.5,161.4c-0.9,1.1-1.7,2.2-2.6,3.2c-0.5,0.6-1.2,0.8-1.8,0.3s0-1.2,0.3-1.5c1.4-1.5,1-4.6,4.1-4.5
		c1.5,0,5.2,4.2,4.8,5.6c-0.3,1.1-1.3,0.7-1.8,0.2C39.4,163.8,38.5,162.6,37.5,161.4z"/>
	<path class="st1" d="M107.4,159.5c1.6,0,3,0.3,2.9,2.2c0,1.9-1.5,2-2.9,2.1c-1.4,0-2.9-0.2-3-2
		C104.4,160.1,105.7,159.5,107.4,159.5z"/>
	<path class="st0" d="M200.3,122.7c-1.9,4.4-4.5,8.4-7.4,12.2c0-0.1-0.1-0.2-0.1-0.4c1.1-4.8,3.4-8.8,7.3-11.9
		C200.1,122.7,200.3,122.7,200.3,122.7z"/>
	<polygon class="st1" points="232.8,114.8 232.8,115 232.7,115 	"/>
	<path class="st0" d="M202.7,126.9c-1.7,4.5-3.9,8.7-7.4,12.2l-0.1-0.1c-0.4-1.7,0.7-3,1.6-4.1C198.9,132.3,199.6,128.7,202.7,126.9
		L202.7,126.9z"/>
	<path class="st2" d="M223,95.4c0.4-0.5,0.8-1.3,1.4-0.5c0.4,0.5-0.5,0.8-1,1C223.3,95.7,223.2,95.5,223,95.4z"/>
</g>
<path class="st3" d="M236.3,45.9h-79.3c-6.6,0-12-5.4-12-12V13.9c0-6.6,5.4-12,12-12h79.3c6.6,0,12,5.4,12,12v19.9
	C248.3,40.5,242.9,45.9,236.3,45.9z"/>
<g>
	<path class="st4" d="M171.5,20.3c-0.8,0-1.5-0.1-2.1-0.4c-0.6-0.2-1.2-0.6-1.7-1.1c-0.5-0.5-0.8-1-1.1-1.6c-0.3-0.6-0.4-1.3-0.4-2
		s0.1-1.4,0.4-2c0.3-0.6,0.6-1.2,1.1-1.6c0.5-0.5,1-0.8,1.7-1.1c0.6-0.2,1.3-0.4,2.1-0.4c0.8,0,1.6,0.1,2.3,0.4
		c0.7,0.3,1.3,0.7,1.7,1.3l-1.5,1.3c-0.3-0.4-0.7-0.7-1.1-0.9c-0.4-0.2-0.9-0.3-1.3-0.3c-0.5,0-0.9,0.1-1.3,0.2s-0.7,0.4-1,0.6
		c-0.3,0.3-0.5,0.6-0.7,1c-0.2,0.4-0.2,0.8-0.2,1.3s0.1,0.9,0.2,1.3c0.2,0.4,0.4,0.7,0.7,1c0.3,0.3,0.6,0.5,1,0.6s0.8,0.2,1.3,0.2
		c0.5,0,0.9-0.1,1.3-0.3c0.4-0.2,0.8-0.5,1.1-0.9l1.5,1.3c-0.5,0.6-1,1-1.7,1.3C173.1,20.2,172.3,20.3,171.5,20.3z"/>
	<path class="st4" d="M181.4,20.3c-1.4,0-2.5-0.4-3.3-1.2c-0.8-0.8-1.2-1.9-1.2-3.3v-5.5h2.3v5.4c0,0.9,0.2,1.6,0.6,2
		s0.9,0.6,1.6,0.6c0.7,0,1.2-0.2,1.6-0.6s0.6-1.1,0.6-2v-5.4h2.2v5.5c0,1.4-0.4,2.5-1.2,3.3C183.8,19.9,182.7,20.3,181.4,20.3z"/>
	<path class="st4" d="M188,20.1v-9.8h4.2c0.9,0,1.6,0.1,2.3,0.4s1.1,0.7,1.5,1.2c0.3,0.5,0.5,1.2,0.5,1.9c0,0.7-0.2,1.4-0.5,1.9
		c-0.3,0.5-0.8,0.9-1.5,1.2s-1.4,0.4-2.3,0.4h-3l1-1v3.7H188z M190.3,16.7l-1-1.1h2.9c0.7,0,1.2-0.1,1.6-0.4
		c0.3-0.3,0.5-0.7,0.5-1.2c0-0.5-0.2-1-0.5-1.3c-0.3-0.3-0.9-0.4-1.6-0.4h-2.9l1-1.1V16.7z"/>
	<path class="st4" d="M203,20.3c-0.8,0-1.5-0.1-2.1-0.4s-1.2-0.6-1.7-1.1c-0.5-0.5-0.9-1-1.1-1.6c-0.3-0.6-0.4-1.3-0.4-2
		s0.1-1.4,0.4-2s0.6-1.2,1.1-1.6s1.1-0.8,1.7-1.1s1.4-0.4,2.1-0.4c0.8,0,1.5,0.1,2.1,0.4s1.2,0.6,1.7,1.1s0.9,1,1.1,1.6
		s0.4,1.3,0.4,2c0,0.7-0.1,1.4-0.4,2s-0.6,1.2-1.1,1.6c-0.5,0.5-1,0.8-1.7,1.1S203.8,20.3,203,20.3z M203,18.4
		c0.4,0,0.8-0.1,1.2-0.2s0.7-0.4,1-0.6c0.3-0.3,0.5-0.6,0.7-1s0.2-0.8,0.2-1.3s-0.1-0.9-0.2-1.3s-0.4-0.7-0.6-1
		c-0.3-0.3-0.6-0.5-1-0.6s-0.8-0.2-1.2-0.2s-0.8,0.1-1.2,0.2c-0.4,0.1-0.7,0.4-1,0.6c-0.3,0.3-0.5,0.6-0.7,1s-0.2,0.8-0.2,1.3
		c0,0.5,0.1,0.9,0.2,1.3s0.4,0.7,0.6,1c0.3,0.3,0.6,0.5,1,0.6C202.2,18.3,202.6,18.4,203,18.4z"/>
	<path class="st4" d="M210.1,20.1v-9.8h1.9l4.2,6.9h-1l4.1-6.9h1.9l0,9.8H219l0-6.5h0.4l-3.3,5.5h-1l-3.3-5.5h0.5v6.5H210.1z"/>
	<path class="st4" d="M224.1,15.2c-0.4,0-0.7-0.1-1-0.4c-0.3-0.3-0.4-0.6-0.4-1c0-0.4,0.1-0.7,0.4-1c0.3-0.2,0.6-0.4,1-0.4
		c0.4,0,0.7,0.1,1,0.4c0.3,0.2,0.4,0.6,0.4,1c0,0.4-0.1,0.7-0.4,1C224.8,15.1,224.5,15.2,224.1,15.2z M224.1,20.3
		c-0.4,0-0.7-0.1-1-0.4c-0.3-0.3-0.4-0.6-0.4-1s0.1-0.7,0.4-1c0.3-0.2,0.6-0.4,1-0.4c0.4,0,0.7,0.1,1,0.4c0.3,0.2,0.4,0.6,0.4,1
		s-0.1,0.7-0.4,1C224.8,20.1,224.5,20.3,224.1,20.3z"/>
	<path class="st4" d="M171.5,37.1c-0.9,0-1.6-0.2-2.3-0.5c-0.6-0.3-1.2-0.8-1.5-1.4c-0.4-0.6-0.5-1.2-0.5-2c0-0.8,0.2-1.4,0.5-2
		c0.4-0.6,0.8-1,1.4-1.4c0.6-0.3,1.3-0.5,2.1-0.5c0.7,0,1.4,0.2,2,0.5c0.6,0.3,1.1,0.8,1.4,1.3c0.3,0.6,0.5,1.3,0.5,2.1
		c0,0.1,0,0.2,0,0.3c0,0.1,0,0.2,0,0.3H169v-1.3h5l-0.8,0.4c0-0.4-0.1-0.7-0.2-1c-0.2-0.3-0.4-0.5-0.7-0.7c-0.3-0.2-0.6-0.2-1-0.2
		s-0.7,0.1-1,0.2c-0.3,0.2-0.5,0.4-0.7,0.7c-0.2,0.3-0.2,0.6-0.2,1v0.3c0,0.4,0.1,0.8,0.3,1.1c0.2,0.3,0.4,0.6,0.8,0.7
		c0.3,0.2,0.7,0.2,1.2,0.2c0.4,0,0.8-0.1,1.1-0.2c0.3-0.1,0.6-0.3,0.8-0.5l1.2,1.3c-0.3,0.4-0.8,0.7-1.3,0.9S172.2,37.1,171.5,37.1z
		"/>
	<path class="st4" d="M179.1,37.1c-0.6,0-1.3-0.1-1.9-0.2c-0.6-0.2-1.1-0.3-1.4-0.6l0.7-1.6c0.3,0.2,0.8,0.4,1.2,0.5
		c0.5,0.1,0.9,0.2,1.4,0.2c0.5,0,0.9-0.1,1.1-0.2c0.2-0.1,0.3-0.3,0.3-0.5c0-0.2-0.1-0.3-0.2-0.4c-0.2-0.1-0.4-0.2-0.7-0.2
		c-0.3,0-0.6-0.1-0.9-0.1c-0.3,0-0.6-0.1-1-0.2c-0.3-0.1-0.6-0.2-0.9-0.4c-0.3-0.2-0.5-0.4-0.7-0.6c-0.2-0.3-0.2-0.6-0.2-1
		c0-0.5,0.1-0.9,0.4-1.3c0.3-0.4,0.7-0.7,1.2-0.9c0.5-0.2,1.1-0.3,1.9-0.3c0.5,0,1,0.1,1.6,0.2c0.5,0.1,1,0.3,1.3,0.5l-0.7,1.6
		c-0.4-0.2-0.7-0.4-1.1-0.4c-0.4-0.1-0.7-0.1-1.1-0.1c-0.5,0-0.8,0.1-1.1,0.2s-0.3,0.3-0.3,0.5c0,0.2,0.1,0.3,0.2,0.4
		c0.2,0.1,0.4,0.2,0.7,0.2s0.6,0.1,0.9,0.1c0.3,0,0.6,0.1,1,0.2s0.6,0.2,0.9,0.4c0.3,0.2,0.5,0.4,0.7,0.6c0.2,0.3,0.3,0.6,0.3,1
		c0,0.5-0.1,0.9-0.4,1.2s-0.7,0.6-1.2,0.8C180.5,36.9,179.9,37.1,179.1,37.1z"/>
	<path class="st4" d="M187.2,37.1c-0.7,0-1.3-0.2-1.9-0.5s-1-0.8-1.4-1.3s-0.5-1.3-0.5-2.1c0-0.8,0.2-1.5,0.5-2
		c0.3-0.6,0.8-1,1.4-1.4c0.6-0.3,1.2-0.5,1.9-0.5c0.7,0,1.2,0.1,1.7,0.4c0.5,0.3,0.8,0.7,1.1,1.3c0.3,0.6,0.4,1.3,0.4,2.2
		c0,0.9-0.1,1.6-0.4,2.2c-0.3,0.6-0.6,1-1.1,1.3C188.4,36.9,187.9,37.1,187.2,37.1z M187.6,35.3c0.4,0,0.7-0.1,1-0.3
		c0.3-0.2,0.5-0.4,0.7-0.7c0.2-0.3,0.3-0.7,0.3-1.1c0-0.4-0.1-0.8-0.3-1.1c-0.2-0.3-0.4-0.5-0.7-0.7c-0.3-0.2-0.6-0.3-1-0.3
		c-0.4,0-0.7,0.1-1,0.3s-0.5,0.4-0.7,0.7c-0.2,0.3-0.3,0.7-0.3,1.1c0,0.4,0.1,0.8,0.3,1.1c0.2,0.3,0.4,0.6,0.7,0.7
		S187.3,35.3,187.6,35.3z M189.5,39.7v-4.2l0.1-2.2l0-2.2v-1.5h2.1v10.2H189.5z"/>
	<path class="st4" d="M196.9,37.1c-0.6,0-1.2-0.1-1.7-0.4s-0.9-0.6-1.1-1.1c-0.3-0.5-0.4-1.1-0.4-1.9v-4.3h2.2v3.9
		c0,0.6,0.1,1.1,0.4,1.4c0.3,0.3,0.6,0.4,1.1,0.4c0.3,0,0.6-0.1,0.9-0.2c0.3-0.1,0.5-0.4,0.6-0.7s0.2-0.7,0.2-1.1v-3.7h2.2v7.5h-2.1
		v-2.1l0.4,0.6c-0.3,0.5-0.6,0.9-1.1,1.2C198,36.9,197.5,37.1,196.9,37.1z"/>
	<path class="st4" d="M204.4,28.4c-0.4,0-0.7-0.1-1-0.4c-0.3-0.2-0.4-0.5-0.4-0.9s0.1-0.6,0.4-0.9s0.6-0.4,1-0.4
		c0.4,0,0.7,0.1,1,0.3s0.4,0.5,0.4,0.8c0,0.4-0.1,0.7-0.4,0.9S204.8,28.4,204.4,28.4z M203.3,36.9v-7.5h2.2v7.5H203.3z"/>
	<path class="st4" d="M212.1,29.3c0.6,0,1.1,0.1,1.6,0.4c0.5,0.2,0.8,0.6,1.1,1.1c0.3,0.5,0.4,1.1,0.4,1.9v4.3H213v-4
		c0-0.6-0.1-1.1-0.4-1.3c-0.3-0.3-0.6-0.4-1.1-0.4c-0.3,0-0.7,0.1-0.9,0.2c-0.3,0.1-0.5,0.4-0.6,0.7c-0.2,0.3-0.2,0.7-0.2,1.1v3.7
		h-2.2v-7.5h2.1v2.1l-0.4-0.6c0.3-0.5,0.7-0.9,1.2-1.2C210.9,29.4,211.5,29.3,212.1,29.3z"/>
	<path class="st4" d="M219.5,37.1c-0.6,0-1.1-0.1-1.5-0.3c-0.4-0.2-0.7-0.5-1-0.8c-0.2-0.3-0.3-0.7-0.3-1.2c0-0.4,0.1-0.8,0.3-1.2
		c0.2-0.3,0.6-0.6,1-0.8c0.5-0.2,1.1-0.3,1.9-0.3h2v1.3h-1.8c-0.5,0-0.9,0.1-1.1,0.3s-0.3,0.4-0.3,0.6c0,0.3,0.1,0.5,0.3,0.7
		c0.2,0.2,0.5,0.2,0.9,0.2c0.4,0,0.7-0.1,1-0.3c0.3-0.2,0.5-0.4,0.6-0.8l0.3,1c-0.2,0.5-0.4,0.9-0.9,1.1S220.2,37.1,219.5,37.1z
		 M221.8,36.9v-1.5l-0.1-0.3v-2.6c0-0.5-0.1-0.8-0.4-1.1c-0.3-0.3-0.7-0.4-1.3-0.4c-0.4,0-0.8,0.1-1.2,0.2c-0.4,0.1-0.7,0.3-1,0.5
		l-0.8-1.5c0.4-0.3,0.9-0.5,1.5-0.7c0.6-0.2,1.2-0.2,1.8-0.2c1.1,0,2,0.3,2.7,0.8c0.6,0.5,1,1.4,1,2.5v4.3H221.8z"/>
</g>
</svg>
