<?xml version="1.0" encoding="utf-8"?>
<!-- Generator: Adobe Illustrator 25.4.1, SVG Export Plug-In . SVG Version: 6.00 Build 0)  -->
<svg version="1.1" id="Layer_1" xmlns="http://www.w3.org/2000/svg" xmlns:xlink="http://www.w3.org/1999/xlink" x="0px" y="0px"
	 viewBox="0 0 250 250" style="enable-background:new 0 0 250 250;" xml:space="preserve">
<style type="text/css">
	.st0{fill:#6DCAD6;}
	.st1{fill:#361346;}
	.st2{fill:#FEFEFE;}
	.st3{fill:#525D4D;}
	.st4{fill:#FFFFFF;}
	.st5{font-family:'Montserrat-Bold';}
	.st6{font-size:14px;}
</style>
<g>
	<path class="st0" d="M153.5,103.2c-0.6,10.7-9.9,21.2-21.6,24.2c-16.4,4.3-33.7-7.1-36-23.7c-0.1-0.4,0-0.8,0.1-1.2
		c9.8-3.6,19.7-7.2,29.8-10.8c-0.3,0.8-0.4,1-0.5,1.3c-1,2.2-1.1,4.1,1.5,5.4c2.8,1.4,3.8-0.5,4.8-2.4c1.5-3,2.9-6,4.2-9
		c0.7-1.7,0.7-3.4-1.2-4.3c-3.5-1.8-7-3.5-10.6-5.1c-1.7-0.7-3,0.1-4,1.6c-1.1,1.6-0.8,3,0.6,4.2c0.7,0.6,1.4,1.1,2.4,2
		c-9.2,3.3-18.2,6.5-27.1,9.7c2-12.5,11.3-22.1,23.6-24.2c0.3-0.1,0.6-0.4,1-0.6c2.8,0,5.6,0,8.4,0c3.5,1.3,7.2,2,10.4,4
		c8.2,5,13.3,12,14.1,21.8c-9.8,3.6-19.7,7.1-29.9,10.8c1.6-4,1.4-5.6-0.8-6.6c-2.4-1.1-3.8-0.3-5.5,3.2c-1.3,2.6-2.4,5.3-3.7,8
		c-1,2.1-0.3,3.7,1.6,4.7c3.3,1.7,6.7,3.3,10.1,4.7c1.9,0.8,3.4,0.1,4.3-1.9c1.5-3.3-1.3-4.1-3.3-5.7
		C135.6,109.8,144.5,106.5,153.5,103.2z"/>
	<path class="st1" d="M4.6,177.9c1.7-5.5,2.4-11.2,3.6-16.8c1.1-5.1,2-10.2,3-15.2c0.2-0.9,0.6-1.4,1.6-1.4c3.2,0,6.4-0.3,9.6,0.2
		c5.6,0.9,7.6,4.6,6.1,10.5c-0.8,3.3-1.6,6.8-4.7,8.8c-0.9,0.6-0.5,1.4-0.5,2.1c0.3,3.5,0.7,7,1.2,10.6c0.2,1.9-0.4,2.7-2.4,2.4
		c-1-0.1-2-0.1-3,0c-1.5,0.1-1.8-0.6-1.9-1.9c-0.2-3.3-0.4-6.7-1.1-9.9c-0.1-0.5,0.2-1.3-0.8-1.3c-0.8,0-0.9,0.5-1,1.1
		c-0.6,3.2-1.3,6.3-1.8,9.5c-0.3,2-1,2.8-3.1,2.5c-1.6-0.2-3.2,0-4.8,0C4.6,178.7,4.6,178.3,4.6,177.9z M17.5,159.3
		c2.3,0.6,3.5-2.1,3.9-6.2c0.2-1.5-0.6-2.1-2.1-2.2c-1.4,0-2.1,0.1-2.2,1.9c-0.1,1.6-0.8,3.2-1.1,4.8
		C15.8,158.7,16,159.6,17.5,159.3z"/>
	<path class="st1" d="M64.6,166.5c-0.9,1.6-2,3.1-2.6,4.8c-0.7,1.9-2.1,1.8-3.6,1.7c-2-0.2-1.4-1.8-1.5-3c-0.1-1.3,0.4-2.8-0.9-4.2
		c-0.7,3.7-1.5,7.2-2,10.6c-0.3,2.1-1.1,2.8-3.2,2.7c-4.8-0.1-4.7,0-3.7-4.8c2-9.3,3.9-18.6,5.6-27.9c0.3-1.8,1-2.3,2.5-2
		c1.7,0.3,4.1-1.3,4.6,2c0.6,4.3,1.3,8.5,2.1,13.5c2.8-5,5.3-9.4,7.8-13.8c0.8-1.4,5.6-2.5,6.8-1.6c0.5,0.4,0.4,0.9,0.3,1.3
		c-2.2,10.7-4.4,21.5-6.5,32.2c-0.2,1-0.7,0.9-1.4,1c-6.1,0.7-6.5,0.2-5.1-5.7c0.5-2.2,1-4.4,1.4-6.6c0.1-0.5,0.5-1-0.2-1.3
		C64.8,165.8,64.7,166.1,64.6,166.5z"/>
	<path class="st1" d="M133,179c5-11.2,9.8-22.1,14.6-33c1.4-3.2,4.4-1.3,6.6-1.5c2.1-0.2,1.1,1.9,1.2,3c0.5,9.5,0.8,19.1,1.3,28.6
		c0.1,2.5-0.5,3.1-3,3.1c-3.1,0-5.1-0.3-4.2-4c0.1-0.3,0-0.8-0.2-1.1c-0.7-0.9-6.5-0.3-6.7,0.8c-0.8,4.7-4.1,4.6-7.7,4.2
		C134.3,179,133.8,179,133,179z M145.6,166.8c2.7,0.8,4.2,0.5,3.8-2.7c-0.2-1.9,0-3.9,0-5.9c-0.1,0-0.3-0.1-0.4-0.1
		C147.8,161,146.7,163.9,145.6,166.8z"/>
	<path class="st1" d="M122.1,179.1c-2.3,0.3-5.2-0.2-7-3.4c-1.1-2-0.5-4.1-0.6-6.1c0-0.8,0.7-0.9,1.3-0.9c1.1-0.1,2.2,0,3.3,0
		c1.7-0.1,3.1,0,2.6,2.3c-0.2,1.1,0.5,1.6,1.3,2c0.9,0.5,1.6-0.2,2.1-0.6c2.3-1.8,1.8-6.3-0.8-7.7c-1-0.5-1.9-1-2.9-1.5
		c-3-1.4-4.3-3.7-4-6.9c0.2-2.2,0.6-4.4,1.6-6.5c2.3-5.2,9.1-7.4,14.1-4.4c2.6,1.5,4.1,6.2,2.9,8.9c-0.4,0.8-1,0.9-1.7,0.9
		c-1.1,0-2.2-0.1-3.3,0c-1.7,0.2-2.3-0.4-2.2-2.1c0.1-0.9,0.5-2.1-1.2-2.2c-1.4-0.1-2,0.7-2.4,1.7c-1,2.7-0.5,4.5,2.5,5.5
		c3.4,1.2,6.7,3,6.4,7.2c-0.3,4.9-0.7,9.9-5.5,13.1C127,179.5,124.9,179,122.1,179.1z"/>
	<path class="st1" d="M102,179c-1.9-0.1-3.9,0.3-5.7-1c-2.3-1.6-3.9-6.3-2.7-8.7c0.7-1.3,2-0.7,3-0.7c2.1,0,4.9-0.9,4.2,3.1
		c-0.2,1,1,1.3,1.7,1.3c1,0,1.9-0.5,2.4-1.5c1.7-3,0.7-5.9-2.7-7.5c-3.3-1.5-6.1-3.4-5.6-7.7c0.5-4.5,1.1-9.1,6-11.3
		c2.7-1.2,5.7-1.1,8.4-0.2c3.6,1.2,5.6,6,4.1,9.3c-0.7,1.6-2.3,0.9-3.5,1c-2.1,0.2-4.2,0.5-3.8-2.9c0.2-2-1.8-1.5-2.8-0.9
		c-2.1,1.4-1.5,5.2,0.8,6.3c1.2,0.6,2.3,1.2,3.5,1.7c2.3,1,3.7,2.9,3.7,5.2c0,4.1-0.3,8.2-3.1,11.7C107.9,178.8,105.1,179.5,102,179
		z"/>
	<path class="st1" d="M153.5,103.2c-9,3.3-17.9,6.6-27.2,10c2.1,1.6,4.9,2.4,3.3,5.7c-0.9,2-2.4,2.7-4.3,1.9
		c-3.4-1.4-6.8-3-10.1-4.7c-1.9-1-2.6-2.6-1.6-4.7c1.2-2.7,2.4-5.3,3.7-8c1.7-3.5,3-4.3,5.5-3.2c2.2,0.9,2.4,2.6,0.8,6.6
		c10.2-3.7,20-7.2,29.9-10.8C154.5,98.4,153.9,100.8,153.5,103.2z"/>
	<path class="st1" d="M96,95c8.9-3.2,17.8-6.4,27.1-9.7c-1-0.8-1.7-1.4-2.4-2c-1.4-1.2-1.7-2.6-0.6-4.2c1-1.5,2.4-2.3,4-1.6
		c3.6,1.6,7.1,3.3,10.6,5.1c1.8,0.9,1.9,2.6,1.2,4.3c-1.3,3-2.7,6.1-4.2,9c-0.9,1.9-2,3.8-4.8,2.4c-2.6-1.3-2.5-3.2-1.5-5.4
		c0.1-0.3,0.2-0.5,0.5-1.3c-10.1,3.7-20,7.3-29.8,10.8C95.4,100,95.8,97.5,96,95z"/>
	<path class="st1" d="M88.4,144.4c1.3,0,2.6-0.1,3.9,0c1.4,0.1,3.7-0.6,3.9,0.4c0.3,1.8-0.5,3.8-1,5.7c-0.2,0.8-1,0.5-1.5,0.5
		c-1.6,0-3.2,0.1-4.8,0c-1.8-0.1-2.4,0.6-2.6,2.3c-0.6,4.8-0.7,4.9,4.1,4.9c1.9,0,2.2,0.8,1.9,2.3c-0.8,4.3-0.8,4.5-5.5,4.2
		c-2.4-0.1-3.1,1-3.4,2.8c-1,5-1,4.9,4.1,5.1c1,0,3.6-1.5,3,1.5c-0.4,1.9,1,5.3-3.3,5.1c-3.5-0.2-7-0.2-10.5,0
		c-2.2,0.1-2.8-0.7-2.4-2.6c1.5-7.2,2.9-14.4,4.3-21.5c0.5-2.6,1.3-5.1,1.6-7.8c0.2-2.3,1.2-3.1,3.4-2.8
		C85.2,144.5,86.8,144.4,88.4,144.4z"/>
	<path class="st1" d="M181.2,178.9c4.1-9.7,8.1-19.3,12.1-28.9c0.5-1.2,1.2-2.3,1.5-3.5c0.6-2.5,2.4-2.2,4.1-2.1
		c2.2,0.1,1.4,1.9,1.4,3c0.1,9.7-0.2,19.5,0.7,29.2c0.2,1.9-0.3,2.6-2.4,2.5c-1.9,0-2.8-0.4-2.4-2.4c0-0.2,0-0.4,0-0.6
		c0-5.2-0.6-5.7-6-4.9c-0.8,0.1-1.2,0.4-1.4,1.2c-0.2,0.9-0.7,1.8-1.1,2.7C186.1,179.4,186.1,179.4,181.2,178.9z M191.2,166.4
		c0.9,0.1,1.5,0,2.1,0.1c2.3,0.4,3.1-0.4,2.9-2.8c-0.2-2.9-0.1-5.9-0.1-8.8c-0.1,0-0.3-0.1-0.4-0.1
		C194.3,158.6,192.9,162.3,191.2,166.4z"/>
	<path class="st1" d="M219.4,170.2c-0.4,2.1-1,4.1-2.2,5.8c-2,2.8-5.9,4.1-9.9,3c-2.3-0.6-3.7-3.4-3.9-7c-0.1-2,0.4-3.9,0.7-5.8
		c1-5.2,1.8-10.4,3.5-15.4c1.8-5.3,5.3-7.4,10.7-6.5c3.3,0.6,5.9,5.4,4.3,8.4c-0.9,1.6-2.5,0.7-3.7,0.8c-1.4,0-0.7-0.9-0.6-1.6
		c0.2-1.5-0.2-2.9-1.8-3.3c-2.1-0.5-3.3,0.7-4.1,2.5c-1.1,2.4-1.5,5-2,7.6c-0.9,4.3-2.1,8.6-2.1,13c0,1.2-0.5,2.8,1.4,3.1
		c1.7,0.2,3.5,0.1,3.9-1.8C214.3,169.6,216.7,170,219.4,170.2z"/>
	<path class="st1" d="M183.3,144.4c1.3,0,2.6-0.2,3.9,0.1c0.9,0.2,2.7-1,2.6,1.1c-0.1,1.7,0,3.4-2.9,3.3c-6.2-0.2-6.2,0-7.5,6
		c0,0.2,0,0.4-0.1,0.6c-0.6,3.9-0.6,3.9,3.4,4c2.7,0,2.8,0,2.7,1.3c-0.1,1.9-0.1,3.7-3,3.5c-4.6-0.2-4.7,0-5.6,4.4
		c-0.6,2.9-1.3,5.7-1.7,8.6c-0.4,2.7-2.5,1.7-4,1.8c-2.3,0.1-0.9-1.7-0.8-2.3c1.9-10.3,3.9-20.5,6-30.7c0.2-1,0.7-1.7,2.1-1.6
		C180.1,144.5,181.7,144.4,183.3,144.4z"/>
	<path class="st1" d="M244.7,174.9c0.1,3.4-1.1,4.7-4.5,4.3c-2.5-0.3-5-0.2-7.5,0c-1.6,0.1-2-0.5-1.7-1.9c2-10.2,4.1-20.3,6.1-30.5
		c0.4-2.1,2.6-3.1,4.6-2.3c1,0.4,0.6,1,0.5,1.7c-1.9,9.1-3.7,18.2-5.7,27.3c-0.3,1.3,0.1,1.6,1.3,1.5
		C240.2,174.9,242.4,174.9,244.7,174.9z"/>
	<path class="st1" d="M31,160.9c1-5.1,2-10.1,2.9-15.2c0.2-1.1,0.7-1.3,1.6-1.3c4.2,0,8.4,0,12.6,0c1.2,0,1.5,0.3,1.5,1.5
		c0,4.4-0.7,5.1-5,5.1c-0.5,0-1,0.1-1.5,0c-2.4-0.6-3.3,0.7-3.7,2.7c-0.4,2.4-0.9,4.8-1.3,7.2C35.8,160.9,33.4,160.9,31,160.9z"/>
	<path class="st1" d="M223.5,179.1c-2.1,0.4-2.3-0.5-1.9-2.5c2-9.7,3.8-19.3,5.9-29c0.3-1.2-0.3-3.3,2.4-3.2c2.3,0,3.2,0,2.5,3
		c-2.3,9.9-4.3,19.9-6,29.9C226,179.4,225,179.1,223.5,179.1z"/>
	<path class="st1" d="M37.6,164.3c-0.6,2.7-1.2,5.3-1.8,8.2c2.4,0,4.7,0.1,6.9,0c1.4-0.1,1.6,0.5,1.4,1.8c-1,4.8-1,4.8-6.1,4.8
		c-3,0-6,0-9,0c-1,0-1.8-0.1-1.5-1.4c1-4.5,2-8.9,3-13.4C32.8,164.3,35.2,164.3,37.6,164.3z"/>
	<path class="st0" d="M37.6,164.3c-2.4,0-4.8,0-7.2,0c-1.1-0.1-2.7,0.1-2.7-1.5c0-2.2,2.1-1.5,3.3-1.8c2.4,0,4.8,0,7.1,0
		c1.7,0,3.9,1.2,3.1-2.4c-0.3-1.3,1.2-2.2,2.5-1.1c1.5,1.3,2.9,2.8,4.2,4.2c0.8,0.8,0.4,1.6-0.3,2.3c-1.1,1-2.1,2.1-3.2,3.2
		c-0.7,0.7-1.4,1.6-2.5,0.8s-1-1.8-0.3-2.9c0.1-0.2,0.1-0.5,0.2-0.9C40.4,164.3,39,164.3,37.6,164.3z"/>
	<path class="st1" d="M205.3,136.3c-3.3,2.5-3.6,7.8-9.7,6.6C198.8,140.4,198.7,134.8,205.3,136.3z"/>
	<path class="st2" d="M64.6,166.5c0.1-0.3,0.2-0.7,0.3-1c0.7,0.4,0.3,0.9,0.2,1.3C64.9,166.7,64.7,166.6,64.6,166.5z"/>
</g>
<path class="st3" d="M236.9,45.9h-79.3c-6.6,0-12-5.4-12-12V14c0-6.6,5.4-12,12-12h79.3c6.6,0,12,5.4,12,12v19.9
	C248.9,40.5,243.5,45.9,236.9,45.9z"/>
<text transform="matrix(1 0 0 1 167.0316 20.1934)"><tspan x="0" y="0" class="st4 st5 st6">CUPOM:</tspan><tspan x="-5.7" y="16.8" class="st4 st5 st6">15esquina</tspan></text>
</svg>
