<?xml version="1.0" encoding="utf-8"?>
<!-- Generator: Adobe Illustrator 25.4.1, SVG Export Plug-In . SVG Version: 6.00 Build 0)  -->
<svg version="1.1" id="Layer_1" xmlns="http://www.w3.org/2000/svg" xmlns:xlink="http://www.w3.org/1999/xlink" x="0px" y="0px"
	 viewBox="0 0 250 250" style="enable-background:new 0 0 250 250;" xml:space="preserve">
<style type="text/css">
	.st0{fill:#A1BCD8;}
	.st1{fill:#85A8CB;}
	.st2{fill:#525D4D;}
	.st3{fill:#FFFFFF;}
	.st4{font-family:'Montserrat-Bold';}
	.st5{font-size:14px;}
</style>
<g>
	<path class="st0" d="M20.4,136.5c2.4,0,4.7,0.3,7.1,0c6.9-0.9,8.9,2.3,9.5,9c2.2,25.3,24.9,46.5,50.1,47.6
		c26.9,1.2,50.8-17.3,55.9-43.2c2.6-13.4,2.6-13.4,16.4-13.4c17,0,17,0,13.9,17.2c-7.4,41-42.4,70.9-82.8,71s-75.8-29.8-83.4-70.5
		C7,153.6,7,153,6.9,152.4C4.1,136.5,4.1,136.5,20.4,136.5z"/>
	<path class="st0" d="M208.7,142c0,24.8-0.2,49.5,0.1,74.3c0.1,6.7-2.1,8.5-8.6,8.6c-20.2,0-20.2,0.3-20.2-19.7
		c0-45.4,0.2-90.8-0.2-136.1c-0.1-8.2,2.3-10.6,10.4-10.4c18.4,0.5,18.5,0.1,18.5,18.9C208.7,99,208.7,120.5,208.7,142z"/>
	<path class="st0" d="M244,223c-8.5,3.4-17.4,1-26.1,1.4c-3.1,0.1-3.8-2.3-3.8-4.9c0-25.4,0-50.7,0-76.1c0-3.5,1.3-5.7,5.1-5.5
		c0.6,0,1.2,0,1.8,0c22.8-1.3,22.8-1.3,22.8,21.5c0,20.6,0.2,41.3,0.3,61.9C243.9,221.9,243.9,222.5,244,223z"/>
	<path class="st0" d="M114.1,134.3c-6.9,0.1-13-5.9-13.1-12.9c-0.1-6.8,6.1-13.1,12.9-13.2s13.1,6.1,13.2,13
		C127,128.1,121,134.3,114.1,134.3z"/>
	<path class="st0" d="M242,120.9c0.2,6.8-5.7,13.2-12.6,13.4c-6.8,0.2-13.2-5.7-13.5-12.6c-0.3-6.7,5.8-13.2,12.6-13.4
		C235.4,108.1,241.8,114,242,120.9z"/>
	<path class="st0" d="M66.6,108.4c6.7-0.2,12.9,5.9,13,12.9c0.1,7.1-5.7,13.2-12.6,13.2c-7.1,0-13.1-5.7-13.2-12.7
		C53.5,115.2,59.9,108.6,66.6,108.4z"/>
	<path class="st1" d="M244,223c-0.1-0.6-0.1-1.1,0-1.7c0.1,0.4,0.3,0.8,0.4,1.2C244.5,222.7,244.2,222.9,244,223z"/>
</g>
<path class="st2" d="M236,47.7h-79.3c-6.6,0-12-5.4-12-12V15.7c0-6.6,5.4-12,12-12H236c6.6,0,12,5.4,12,12v19.9
	C248,42.3,242.6,47.7,236,47.7z"/>
<text transform="matrix(1 0 0 1 166.1646 21.9145)"><tspan x="0" y="0" class="st3 st4 st5">CUPOM:</tspan><tspan x="-6.3" y="16.8" class="st3 st4 st5">10esquina</tspan></text>
</svg>
