<?xml version="1.0" encoding="utf-8"?>
<!-- Generator: Adobe Illustrator 25.4.1, SVG Export Plug-In . SVG Version: 6.00 Build 0)  -->
<svg version="1.1" id="Layer_1" xmlns="http://www.w3.org/2000/svg" xmlns:xlink="http://www.w3.org/1999/xlink" x="0px" y="0px"
	 viewBox="0 0 250 250" style="enable-background:new 0 0 250 250;" xml:space="preserve">
<style type="text/css">
	.st0{fill:#F23A4A;}
</style>
<g>
	<path class="st0" d="M203,142.8c-0.1,24.3-27.5,42.8-50.6,34.1c-11-4.2-20.4-10.6-28.2-19.3c-2.6-2.9-4.3-3-7.2-0.3
		c-6.2,5.8-13.2,10.6-20.1,15.5c-23.6,16.6-55.9-2.9-57.4-29.8c-0.5-8.9,2-17,5.8-25c15.3-32.4,30.4-65,47.8-96.4
		c4.9-8.9,12-15.9,22.4-18.1c13.3-2.7,27.3,3.9,33.4,16.4c16.7,34.4,33.1,69.1,49.6,103.7C201.2,129.6,203.2,135.9,203,142.8z
		 M121.2,67.5c18.4,0,32.1,16.3,29.1,34.5c-2.5,15.1-9.7,28.1-19,40c-2.5,3.1-2.3,4.9,0.3,7.6c6.2,6.5,13.2,11.8,21.4,15.5
		c10.6,4.8,23.3,2.6,31.8-5.6c7.8-7.6,9.6-17.4,4.5-29c-15.6-35.6-33.6-70.1-50.1-105.3c-3.6-7.6-10.3-11.2-18.7-11.1
		c-10.3,0.2-15,7.7-19.3,15.4c-13.5,24.3-25.4,49.5-37.3,74.6c-4.7,10-10.8,19.5-13,30.5c-2.4,11.4,1.6,20.8,10.8,27.6
		c7.9,5.9,16.7,8.3,26,3.2c8.5-4.7,16-10.8,23.2-17.4c2.2-2,2.1-3,0.4-5.7c-6.6-10.6-15.2-19.9-19.1-32.1
		C85.3,88.3,99.4,67.5,121.2,67.5z M121.2,136.6c9-10.8,15.7-22.2,18-35.7c1.7-9.7-3.7-19-12.4-21.6c-7.5-2.3-14.1-0.4-19.5,4.9
		c-6.2,6.1-7.6,13.7-4.9,21.8C106.3,117.5,114.4,126.4,121.2,136.6z"/>
	<path class="st0" d="M204.3,208.1c12.9-5.3,23-2.3,28.4,7.6c5.1,9.4,2.6,21.5-6.1,27.5c-5.8,4-12.3,5.6-18.7,1.9
		c-3.7-2.1-6,1.6-9.3,0.9c-2.8-0.6-4.2-0.9-4.2-4.1c0.1-17.1,0.2-34.3,0-51.4c0-4.2,2.4-3.8,5.1-3.8c2.9-0.1,5.1,0,4.9,4
		C204.1,196.3,204.3,201.9,204.3,208.1z M204.3,225.5c0,9,2.1,11.8,8.8,11.9c7,0.1,12-4.7,12-11.4c0-6.9-4.9-11.8-11.8-11.7
		C207,214.4,204.3,217.7,204.3,225.5z"/>
	<path class="st0" d="M116.9,208.1c12.1-5.1,22-2.8,27.6,5.8c5.7,8.8,4,21.1-3.8,28.1c-3.8,3.4-8.4,5.4-13.3,4.8
		c-5.8-0.7-11.5-2.5-17.4-1c-2.5,0.6-2.9-1.2-2.9-3.3c0-17.3,0.1-34.7,0-52c0-4.2,2.4-3.7,5.1-3.8c3-0.1,5,0.2,4.8,4.1
		C116.7,196.4,116.9,202,116.9,208.1z M117,225.7c0,8.8,2.3,11.7,8.9,11.7c7,0,11.9-4.8,11.8-11.6c-0.1-7-4.9-11.6-12-11.5
		C119.3,214.5,117,217.5,117,225.7z"/>
	<path class="st0" d="M55.4,226.2c0,4.4,0,8.9,0,13.3c0,6.3-3.1,8.4-8.9,5.8c-1.6-0.7-2.2-1.1-3.9-0.3c-8.5,4-17.5,1.7-23.3-5.4
		c-5.9-7.3-6.2-18.8-0.6-26.5c5.3-7.3,14.8-9.8,23.6-6.1c1.6,0.7,2.4,0.6,4.1-0.2c6.2-2.9,8.9-0.8,8.9,6.2
		C55.4,217.4,55.4,221.8,55.4,226.2z M45.6,226.3c0-8.8-2.2-11.9-8.7-12c-6.8-0.1-12,4.9-12,11.6c0,6.7,5,11.6,12,11.5
		C43.6,237.4,45.6,234.8,45.6,226.3z"/>
	<path class="st0" d="M152.3,225.7c0-4.6,0-9.3,0-13.9c0-5.6,2.6-7.7,7.8-5.4c2.2,1,3.5,1.3,5.8,0.2c9.4-4.7,24.1,1,22.8,14.9
		c-0.6,6.8-0.3,13.7,0.1,20.6c0.3,4.3-2.2,3.8-4.9,3.8c-2.7,0-5.3,0.4-5.1-3.8c0.3-6.4,0.2-12.9,0-19.4c-0.1-6-2.7-8.6-7.8-8.6
		c-5.8,0-8.7,2.9-8.8,8.9c0,6-0.4,12.1,0.2,18.1c0.4,4.6-1.7,4.6-5.2,4.8c-4.2,0.3-5.2-1.3-5-5.1
		C152.5,235.8,152.3,230.7,152.3,225.7z"/>
	<path class="st0" d="M85.4,206.4c3,2.1,7.3,0,11.8-1.2c2.9-0.8,5.5-0.5,5.5,4c0,3.7-0.4,5.4-4.8,5.2c-7.2-0.2-9,2.1-9,9.5
		c0,5.7-0.2,11.3,0.1,16.9c0.2,3.9-0.9,5.2-5,5.2c-4.2,0-5.6-1.2-5.4-5.5c0.3-9.9,0.3-19.8,0-29.7C78.4,206.8,79.8,205.3,85.4,206.4
		z"/>
	<path class="st0" d="M62.3,226.4c0-5.2,0.2-10.5-0.1-15.7c-0.2-3.8,1.2-4.9,4.8-4.8c3.2,0.1,5.3,0.3,5.2,4.5
		c-0.3,10.5-0.3,21,0,31.5c0.1,4-1.9,4-4.9,4c-3.1,0-5.5,0-5.2-4.3C62.6,236.5,62.3,231.5,62.3,226.4z"/>
	<path class="st0" d="M67.3,200.2c-4.4-0.6-7.2-2.8-6.9-7.1c0.3-4.1,3-6.7,7.2-6.4c3.8,0.3,6.4,2.8,6.3,6.8
		C73.8,197.7,71.2,199.9,67.3,200.2z"/>
</g>
</svg>
