<?xml version="1.0" encoding="utf-8"?>
<!-- Generator: Adobe Illustrator 25.4.1, SVG Export Plug-In . SVG Version: 6.00 Build 0)  -->
<svg version="1.1" id="Layer_1" xmlns="http://www.w3.org/2000/svg" xmlns:xlink="http://www.w3.org/1999/xlink" x="0px" y="0px"
	 viewBox="0 0 250 250" style="enable-background:new 0 0 250 250;" xml:space="preserve">
<style type="text/css">
	.st0{fill:#ADADAD;}
	.st1{fill:#696969;}
</style>
<g>
	<path class="st0" d="M243.5,90.5c-2.3,2.2-4.4,4.2-6.4,6.1c-4.1,4-8.2,8.1-12.3,12.1c-3.1,3.1-6.3,6.2-9.4,9.3
		c-1.5,1.5-3.2,1.4-4.7,0c-10.5-10.4-21.1-20.7-31.6-31.1c-0.6-0.6-1.2-0.6-1.8-0.6c-7.5,0-15.1,0-22.6,0c-1.3,0-1.5,0.5-1.5,1.6
		c0,20.4,0,40.8,0,61.3c0,0.8,0,1.5,0,2.3c0,0.8-0.2,1.1-1,1.1c-4.1,0.1-4.1,0.1-4.1-4c0-20.2,0-40.4,0-60.6c0-1.3-0.3-1.8-1.7-1.7
		c-7.4,0.1-14.8,0-22.2,0.1c-1.2,0-1.6-0.3-1.6-1.5c0-3.1,0-3.1,3.1-3.1c18.2,0,36.4,0,54.6,0c0.9,0,1.5,0.2,2.1,0.9
		c9.8,9.8,19.6,19.6,29.3,29.4c1,1,1.4,0.8,2.3,0c8.6-8.7,17.3-17.3,26-26c0.7-0.7,1.4-1.3,2-2c1.4-2,3.4-2.4,5.7-2.2
		c0.7,0.1,1,0.2,0.9,0.9c0,0.5,0,1,0,1.5c0,22.3,0,44.5,0,66.8c0,1.4-0.4,1.7-1.7,1.7c-3.4-0.1-3.4,0-3.4-3.5c0-18.9,0-37.8,0-56.7
		C243.5,92,243.5,91.4,243.5,90.5z"/>
	<path class="st0" d="M126.5,130.4c0,4.1,0,8.2,0,12.3c0,1.1-0.4,1.8-1.1,2.4c-3.9,3.2-8.3,5.3-13.1,6.6c-4.4,1.2-8.9,1.6-13.5,1.3
		c-8-0.5-15.3-3-21.6-8.1c-7.4-6.1-11.6-14-12.5-23.4c-1.1-11.8,2.1-22.2,11-30.4c5.6-5.2,12.3-8.1,19.8-9.1
		c4.8-0.7,9.7-0.2,14.6-0.3c1.8,0,3.5,0,5.3,0c0.8,0,1.1,0.2,1.1,1.1c0.1,3.6,0.1,3.6-3.5,3.6c-3.8,0-7.7,0-11.5,0
		c-9.3,0.1-17.4,3.2-23.8,10c-4.7,5-7.3,11-7.8,17.9c-0.3,3.8-0.1,7.4,0.8,11.1c1.6,6.2,4.8,11.3,9.6,15.4c4.4,3.7,9.5,6.2,15.2,7
		c8.7,1.3,17,0.2,24.5-4.9c0.9-0.6,1.3-1.3,1.3-2.4c-0.1-5.9-0.1-11.7,0-17.6c0-1.2-0.4-1.6-1.5-1.5c-1,0.1-2,0-3,0
		c-0.7,0-1-0.2-1-0.9c0-1.1,0-2.2,0-3.2c0-0.7,0.3-0.9,1-0.9c2.8,0,5.6,0,8.4,0c1,0,1.2,0.4,1.2,1.3
		C126.5,122,126.6,126.2,126.5,130.4C126.5,130.4,126.5,130.4,126.5,130.4z"/>
	<path class="st0" d="M9.9,116.6c-0.1,9.7,3.1,17.5,9.8,23.7c5,4.6,11,7.2,17.8,7.8c4.4,0.4,8.8,0.2,13.1-1.1
		c4.2-1.2,7.9-3.2,11.1-6.2c1-0.9,1.6-1,2.3,0.1c0.2,0.3,0.4,0.4,0.7,0.7c1.6,1.9,1.5,1.9-0.4,3.6c-4.7,3.9-10,6.4-16,7.4
		c-8.7,1.5-17.1,0.5-25-3.6c-6.4-3.3-11.2-8.2-14.6-14.6c-4.7-8.9-5.5-18.4-2.6-27.9c3.7-12.4,12.1-20.6,24.7-24
		c9.9-2.7,19.6-1.8,28.8,3.2c2.2,1.2,4.1,2.8,6,4.6c0.5,0.5,0.5,0.9,0,1.4c-2.4,2.7-2.4,2.7-5.2,0.4c-4.3-3.4-9.1-5.3-14.6-5.9
		c-4.8-0.5-9.5-0.4-14.1,1.1c-7.3,2.3-13.1,6.5-17.2,13.1C11.3,105.6,9.8,111.2,9.9,116.6z"/>
	<path class="st0" d="M212.9,137c-3.9-3.4-7.2-6.9-10.6-10.3c-6.3-6.2-12.6-12.4-18.8-18.6c-0.3-0.3-0.5-0.8-1-0.6
		c-0.4,0.2-0.2,0.7-0.2,1.1c0,14.1,0,28.2,0,42.3c0,1.3-0.3,1.8-1.6,1.6c-1.2-0.1-2.7,0.5-3.4-0.3c-0.6-0.6-0.1-2.1-0.1-3.2
		c0-16.4,0-32.7,0-49.1c0-1.7,0-1.4,1.7-1.6c2.2-0.3,3.4,0.7,4.8,2.1c9.4,9.5,18.9,19,28.4,28.4c0.6,0.6,0.8,1.2,0.8,2
		C212.8,132.9,212.9,134.8,212.9,137z"/>
	<path class="st1" d="M57.4,173.5c0-1.7,0-3.3,0-5c0-0.8,0.2-1.1,1-1.1c1.4,0.1,2.8,0,4.2,0c3.4,0.2,5.7,2.4,5.8,5.6
		c0.1,3.7-1.8,6.1-5.4,6.5c-1.6,0.2-3.3,0-5,0.1c-0.7,0-0.7-0.4-0.7-0.9C57.4,177.1,57.4,175.3,57.4,173.5
		C57.4,173.5,57.4,173.5,57.4,173.5z M59.2,173.5c0,0.4,0,0.8,0,1.2c0,3.5,0,3.5,3.5,3.3c2.4-0.2,4.1-1.9,4.1-4.3
		c0.1-2.5-1.5-4.4-3.9-4.6c-0.9-0.1-1.9,0-2.8,0c-0.8-0.1-0.9,0.3-0.9,1C59.2,171.2,59.2,172.4,59.2,173.5z"/>
	<path class="st1" d="M111.1,173.6c0-1.7,0-3.4,0-5.1c0-0.8,0.2-1,1-1c1.4,0.1,2.9,0,4.3,0c3.5,0.2,5.8,2.6,5.8,6
		c0,3.4-2.3,5.9-5.8,6.1c-1.5,0.1-3,0-4.5,0c-0.8,0-0.9-0.3-0.9-1C111.1,177,111.1,175.3,111.1,173.6
		C111.1,173.6,111.1,173.6,111.1,173.6z M112.7,173.4c0,0.6,0,1.2,0,1.8c0,3,0,3,3,2.9c3.2-0.1,5.1-2.1,4.6-5.2
		c-0.4-2.5-1.8-4.1-6.6-3.7c-1,0.1-1,0-1,3.4C112.7,172.8,112.7,173.1,112.7,173.4z"/>
	<path class="st1" d="M213.6,173.7c0-1.8,0-3.5,0-5.3c0-0.4-0.1-0.9,0.5-0.9c2.2,0.1,4.4-0.3,6.6,0.3c2.7,0.9,4.3,3.5,3.9,6.3
		c-0.4,3.3-2.4,5.3-5.6,5.5c-1.5,0.1-3.1,0-4.6,0c-0.7,0-0.8-0.3-0.8-0.9C213.7,177.1,213.6,175.4,213.6,173.7
		C213.6,173.7,213.6,173.7,213.6,173.7z M215.3,173.6c0,0.4,0,0.9,0,1.3c0,3.2,0,3.2,3.3,3.1c2.7-0.1,4.4-1.9,4.4-4.6
		c0-2.6-1.7-4.3-4.4-4.4c-0.6,0-1.3,0.1-1.9,0c-1-0.1-1.5,0.2-1.4,1.3C215.4,171.4,215.3,172.5,215.3,173.6z"/>
	<path class="st1" d="M21.6,167.4c3.5,0,6,2.7,5.9,6.3c-0.1,3.5-2.8,6.1-6.2,6.1c-3.5-0.1-6-2.8-6-6.3
		C15.4,169.8,17.9,167.4,21.6,167.4z M17,173.5c0,2.6,1.9,4.6,4.4,4.6c2.5,0,4.5-2,4.5-4.6c0-2.5-2-4.7-4.4-4.7
		C19,168.9,17.1,170.9,17,173.5z"/>
	<path class="st1" d="M232.2,167.4c3.6,0,6.1,2.5,6.1,6.1c0,3.6-2.6,6.3-6.1,6.3c-3.4,0-6-2.6-6.1-6.1
		C226.1,170,228.6,167.4,232.2,167.4z M236.7,173.6c0-2.6-1.9-4.7-4.4-4.7c-2.5,0-4.5,2.1-4.5,4.7c0,2.5,1.9,4.5,4.4,4.5
		C234.6,178.2,236.7,176.2,236.7,173.6z"/>
	<path class="st1" d="M180.9,167.4c3.6,0,6.1,2.6,6,6.2c0,3.5-2.7,6.2-6.1,6.2c-3.6,0-6.2-2.8-6.1-6.5
		C174.8,169.9,177.4,167.4,180.9,167.4z M180.7,178.2c2.5,0.1,4.5-1.9,4.5-4.5c0.1-2.6-1.7-4.6-4.3-4.8c-2.4-0.1-4.5,2-4.6,4.5
		C176.3,176,178.2,178.1,180.7,178.2z"/>
	<path class="st1" d="M151.4,173.4c0-1.6,0.1-3.2,0-4.9c0-0.9,0.3-1.2,1.2-1.1c1.3,0.1,2.6,0,3.9,0c3.5,0.1,6,2.5,6.1,5.9
		c0.1,3.4-2.3,6-5.8,6.2c-1.5,0.1-3,0-4.5,0c-0.8,0-0.9-0.3-0.9-1C151.5,176.9,151.4,175.2,151.4,173.4
		C151.4,173.4,151.4,173.4,151.4,173.4z M153.1,173.5c0,0.4,0,0.8,0,1.2c0,3.8,0,3.8,3.9,3.3c2.4-0.3,3.9-2.1,3.8-4.6
		c-0.1-2.5-1.7-4.2-4.1-4.3c-0.9,0-1.8,0-2.7,0c-0.7,0-1,0.2-0.9,0.9C153.1,171.2,153.1,172.3,153.1,173.5z"/>
	<path class="st1" d="M82.5,173.6c0-1.7,0-3.4,0-5.1c0-0.8,0.2-1,1-1c1.8,0.1,3.7-0.2,5.5,0.2c2.7,0.5,4.5,2.8,4.6,5.7
		c0.1,3-1.7,5.3-4.4,6c-2,0.5-3.9,0.2-5.9,0.3c-0.7,0-0.7-0.4-0.7-1C82.5,177,82.5,175.3,82.5,173.6
		C82.5,173.6,82.5,173.6,82.5,173.6z M84.2,173.5c0,0.4,0,0.8,0,1.2c0,3.6,0,3.6,3.7,3.3c2.4-0.2,4.1-2.1,4.1-4.5
		c0-2.5-1.7-4.3-4.2-4.4c-0.9,0-1.8,0-2.7,0c-0.8,0-0.9,0.3-0.9,1C84.2,171.2,84.2,172.4,84.2,173.5z"/>
	<path class="st1" d="M46.6,173.6c0-1.7,0-3.4,0-5.1c0-0.8,0.2-1,1-1c2.1,0,4.1,0,6.2,0c0.6,0,0.9,0.2,0.9,0.8
		c0,0.7-0.3,0.8-0.9,0.8c-1.5,0-3.1,0-4.6,0c-0.7,0-0.9,0.2-0.9,0.9c-0.1,2.7-0.1,2.7,2.6,2.7c0.8,0,1.5,0,2.3,0
		c0.5,0,0.8,0.1,0.8,0.8c0,0.6-0.2,0.8-0.8,0.8c-1.3,0-2.6,0-3.9,0c-0.7,0-1,0.1-1.1,0.9c-0.1,2.9-0.1,2.9,2.8,2.9c1,0,2.1,0,3.1,0
		c0.6,0,0.8,0.3,0.8,0.8c0,0.6-0.2,0.8-0.8,0.8c-2.3,0-4.5,0-6.8,0c-0.6,0-0.7-0.3-0.7-0.8C46.7,177.1,46.6,175.3,46.6,173.6
		C46.6,173.6,46.6,173.6,46.6,173.6z"/>
	<path class="st1" d="M124.4,173.5c0-1.7,0-3.3,0-5c0-0.7,0.1-1.1,1-1.1c2.2,0,4.3,0,6.5,0c0.7,0,0.7,0.3,0.7,0.8
		c0,0.6-0.1,0.8-0.7,0.8c-1.6,0-3.2,0-4.7,0c-0.8,0-1,0.2-1,1c0.1,3.3-0.4,2.6,2.6,2.7c0.8,0,1.5,0,2.3,0c0.6,0,0.9,0.1,0.9,0.8
		c0,0.6-0.3,0.7-0.9,0.7c-1.3,0-2.7,0-4,0c-0.6,0-0.8,0.2-0.9,0.8c-0.2,3-0.2,3,2.8,3c1,0,2.1,0,3.1,0c0.7,0,0.8,0.3,0.8,0.9
		c0,0.6-0.3,0.7-0.8,0.7c-2.2,0-4.5,0-6.7,0c-0.7,0-0.8-0.3-0.8-0.9C124.5,177,124.4,175.3,124.4,173.5z"/>
	<path class="st1" d="M95.9,173.5c0-1.7,0-3.3,0-5c0-0.7,0.1-1.1,0.9-1.1c2.1,0.1,4.2,0,6.3,0c0.6,0,0.9,0.1,0.9,0.8
		c0,0.7-0.4,0.8-0.9,0.8c-1.5,0-3.1,0-4.6,0c-0.7,0-0.9,0.2-0.9,0.9c-0.1,2.7-0.1,2.7,2.5,2.7c0.7,0,1.4,0,2,0
		c0.6,0,1.2-0.1,1.2,0.8c0,0.9-0.6,0.7-1.1,0.7c-1.2,0-2.4,0.1-3.6,0c-0.8,0-1,0.3-1,1c-0.1,2.8-0.1,2.8,2.7,2.8c1,0,2.1,0,3.1,0
		c0.6,0,0.9,0.2,0.9,0.8c0,0.6-0.3,0.8-0.8,0.8c-2.3,0-4.5,0-6.8,0c-0.7,0-0.8-0.3-0.8-0.9C95.9,177,95.9,175.3,95.9,173.5
		C95.9,173.5,95.9,173.5,95.9,173.5z"/>
	<path class="st1" d="M198.8,176c-0.2,0.8,0.5,1.9-0.5,2.6c-1.6,1.1-3.4,1.4-5.3,1c-2.4-0.6-4-2.1-4.5-4.5c-0.5-2.6,0-5,2.3-6.6
		c2.2-1.5,4.5-1.6,6.9-0.3c0.5,0.3,1.3,0.5,0.9,1.4c-0.5,0.9-1,0.4-1.6,0c-1.8-1.1-4.2-0.8-5.6,0.6c-1.4,1.4-1.7,4.1-0.6,5.9
		c1,1.7,3.4,2.5,5.3,1.9c0.7-0.2,1.3-0.6,1.2-1.5c-0.1-0.7,0-1.4,0-2.2c0-0.7,0.3-0.8,0.9-0.8c0.6,0,0.7,0.3,0.7,0.8
		C198.8,174.8,198.8,175.4,198.8,176z"/>
	<path class="st1" d="M200.1,179.5c1.7-3.9,3.3-7.6,4.9-11.4c0.2-0.6,0.6-0.7,1.1-0.7c0.5,0,0.9,0,1.1,0.5c1.6,3.8,3.2,7.7,4.9,11.5
		c-1.2,0.4-2,0.1-2.2-1.1c-0.3-1.4-1.1-2-2.6-1.8c-0.4,0.1-0.9,0.1-1.3,0c-2-0.3-3.4,0.2-3.9,2.4
		C201.9,179.8,201.7,179.7,200.1,179.5z M206.1,169.4c-0.8,1.8-1.4,3.4-2.1,5c-0.2,0.6-0.1,0.8,0.6,0.8c0.9,0,1.9,0,2.8,0
		c0.8,0,1.1-0.2,0.7-1C207.4,172.7,206.8,171.2,206.1,169.4z"/>
	<path class="st1" d="M149.9,179.5c-1.3,0.4-2,0-2.3-1.2c-0.3-1.3-1.1-2-2.5-1.7c-0.5,0.1-1,0.1-1.5,0c-1.9-0.3-3.3,0.1-3.7,2.3
		c-0.2,1.1-1.1,0.7-2,0.7c1.3-3.2,2.7-6.3,4-9.3c0.3-0.7,0.6-1.3,0.8-2c0.2-0.6,0.5-0.8,1.2-0.8c0.7,0,0.9,0.3,1.2,0.8
		C146.6,172,148.2,175.7,149.9,179.5z M141.5,175.1c1.4,0,2.7,0,4,0c0.6,0,0.7-0.2,0.5-0.7c-0.7-1.6-1.3-3.2-2.1-4.9
		c-0.3,0.5-0.4,0.8-0.5,1.1C142.7,172,142.1,173.5,141.5,175.1z"/>
	<path class="st1" d="M80,179.6c-0.9,0.2-1.1-0.4-1.2-1c-0.4-1.6-1.3-2.4-3.1-2c-0.3,0.1-0.6,0.1-0.9,0c-2-0.4-3.5,0.1-3.9,2.4
		c-0.2,0.9-1,0.8-1.5,0.6c-0.8-0.3-0.1-0.8,0-1.2c1.4-3.4,2.9-6.7,4.3-10c0.3-0.6,0.5-0.9,1.2-1c0.8,0,1,0.4,1.2,1
		c1.5,3.4,2.9,6.9,4.4,10.3C80.9,179.4,81,179.8,80,179.6z M74.9,169.4c-0.4,1-0.7,1.7-1,2.3c-1.6,3.7-1.6,3.7,2.4,3.4
		c0,0,0.1,0,0.1,0c0.6,0,0.7-0.2,0.5-0.7C76.4,172.8,75.7,171.3,74.9,169.4z"/>
	<path class="st1" d="M9.8,179.8c-1.5,0-2.8-0.4-3.9-1c-0.6-0.3-0.6-0.8-0.4-1.3c0.3-0.8,0.7-0.2,1.1,0c1.3,0.7,2.6,1,4,0.7
		c0.9-0.1,1.7-0.6,1.8-1.6c0.1-1-0.7-1.5-1.5-1.8c-1-0.3-2.1-0.6-3.1-0.9c-1.6-0.6-2.3-1.5-2.3-3c0-1.4,0.7-2.6,2.1-3.1
		c1.8-0.6,3.5-0.6,5.3,0.3c0.6,0.3,0.7,0.5,0.4,1.1c-0.3,0.7-0.6,0.5-1.1,0.3c-1.2-0.5-2.4-0.8-3.7-0.4c-0.8,0.3-1.3,0.8-1.3,1.6
		c0,0.9,0.5,1.3,1.2,1.6c1,0.3,2.1,0.6,3.1,0.9c2,0.7,2.7,1.7,2.5,3.5c-0.2,1.6-1.4,2.7-3.3,3C10.3,179.7,10,179.8,9.8,179.8z"/>
	<path class="st1" d="M244.3,167.4c1,0,2,0.1,2.9,0.6c0.6,0.3,0.7,0.7,0.5,1.3c-0.3,0.7-0.7,0.3-1.1,0.2c-1.1-0.4-2.3-0.8-3.5-0.4
		c-0.8,0.3-1.5,0.7-1.5,1.7c-0.1,0.9,0.6,1.4,1.4,1.6c1.1,0.4,2.2,0.6,3.2,1c1.8,0.7,2.4,1.7,2.3,3.2c-0.1,1.5-1.1,2.7-2.8,3.1
		c-1.8,0.4-3.6,0.1-5.2-0.7c-0.5-0.3-1-0.6-0.6-1.4c0.5-0.9,0.9-0.2,1.3,0c1.3,0.7,2.6,0.9,4,0.6c0.8-0.2,1.5-0.6,1.6-1.6
		c0.1-1-0.5-1.4-1.3-1.7c-1-0.4-2-0.6-3-0.9c-2-0.7-2.8-1.8-2.6-3.5c0.2-1.6,1.5-2.8,3.5-3C243.7,167.4,244,167.4,244.3,167.4z"/>
	<path class="st1" d="M35.2,167.4c1.3-0.1,2.5,0.3,3.6,1.2c0.3,0.3,0.8,0.5,0.3,1c-0.4,0.4-0.6,0.7-1.3,0.2
		c-2.3-1.7-5.2-1.1-6.5,1.3c-1.4,2.5-0.5,5.5,2,6.6c1.6,0.7,3.1,0.5,4.4-0.6c0.6-0.5,0.9-0.2,1.3,0.2c0.6,0.6,0,0.8-0.3,1.1
		c-1.8,1.6-5.2,1.6-7.2,0.2c-2.2-1.6-3.2-4.7-2.3-7.3C30.2,168.8,32.3,167.4,35.2,167.4z"/>
	<path class="st1" d="M168.6,177.3c1.3-3.1,2.5-5.9,3.7-8.6c0.1-0.3,0.2-0.6,0.4-0.9c0.4-0.6,1-0.4,1.4-0.3c0.5,0.2,0.1,0.6-0.1,0.9
		c-1.4,3.5-2.9,6.9-4.3,10.4c-0.2,0.6-0.5,0.8-1.2,0.8c-0.7,0-1-0.3-1.2-0.8c-1.4-3.3-2.8-6.6-4.1-10c-0.2-0.4-0.9-1-0.2-1.3
		c0.7-0.3,1.4-0.1,1.8,0.8c0.9,2.4,2,4.8,3,7.2C168.1,176.1,168.3,176.5,168.6,177.3z"/>
	<path class="st1" d="M41.6,173.6c0-1.7,0-3.4,0-5.1c0-0.7,0.1-1,0.9-1c0.7,0,0.8,0.4,0.8,0.9c0,3.4,0,6.8,0,10.2c0,0.6,0,1-0.8,1
		c-0.8,0-0.8-0.4-0.8-1C41.6,177,41.6,175.3,41.6,173.6z"/>
</g>
</svg>
