<?xml version="1.0" encoding="utf-8"?>
<!-- Generator: Adobe Illustrator 25.4.1, SVG Export Plug-In . SVG Version: 6.00 Build 0)  -->
<svg version="1.1" id="Layer_1" xmlns="http://www.w3.org/2000/svg" xmlns:xlink="http://www.w3.org/1999/xlink" x="0px" y="0px"
	 viewBox="0 0 250 250" style="enable-background:new 0 0 250 250;" xml:space="preserve">
<style type="text/css">
	.st0{fill:#FFFFFF;}
</style>
<g>
	<path d="M95.3,72.6c0-2.2-0.2-4.3,1.5-5.9c0.9-0.8,1.9-1.2,3.1-1.3c2-0.1,3.7,0.4,5,1.9c1.4,1.5,1,3.4,1.1,5.3c1.6,0,3.1,0,4.7,0
		c0-0.7,0-1.4,0-2.1c-0.1-2.6,1.9-5.2,5.3-5.1c3.1,0.1,5.4,2.2,5.4,5.2c0,0.7,0,1.3,0,2c1.6,0,3.2,0,4.8,0c0-0.7,0.1-1.5,0-2.2
		c-0.2-2,1.4-4.4,3.8-4.9c3.1-0.6,6,0.7,6.8,4c0.2,0.9,0,2,0,3c1.7,0,3.2,0,4.9,0c0-0.7,0-1.5,0-2.2c0-3,2-4.9,5-5
		c3.3-0.1,5.9,2.3,5.7,5.6c0,0.5,0,1,0,1.6c0.9,0,1.7,0,2.5,0c0.8,0,1.5,0,2.4,0c0-0.9,0-1.7,0-2.5c0-2.6,2.1-4.7,4.7-4.8
		c2.5-0.1,4.4,0.7,5.6,3c0.3,0.6,0.4,1.2,0.4,1.8c0.1,0.8,0,1.5,0,2.4c1.9,0,3.6,0,5.4,0c1.5,0,1.7,0.2,1.7,1.7
		c0,40.7,0,81.4,0,122.1c0,1.5-0.2,1.7-1.7,1.7c-28.2,0-56.3,0-84.5,0c-1.5,0-1.7-0.2-1.7-1.7c0-40.7,0-81.4,0-122
		c0-1.5,0.2-1.7,1.7-1.7C90.9,72.6,93,72.6,95.3,72.6z M172.7,195.8c0-33,0-66,0-99c-27.9,0-55.7,0-83.5,0c0,7.9,0,15.8,0,23.7
		c2.6-0.7,5.2-1.3,7.7-2c0.2-0.1,0.4-0.4,0.5-0.6c0.3-0.7,0.8-1.1,1.6-1.1c0.7,0,1.2,0.4,1.6,1c0.2,0.3,0.5,0.6,0.8,0.7
		c1.6,0.5,3.3,1,4.9,1.4c0.4,0.1,0.9,0,1.4,0c0.5,0,1,0.1,1.5,0.1c0.4,0,0.8,0.2,1.2,0.1c2.9-0.9,5.9-1.8,8.8-2.7
		c2-0.6,4.1-1,5.8-2.4c0.3-0.2,0.5-0.6,0.6-0.9c0.2-0.8,0.6-1.3,1.4-1.5c0.3-0.1,0.6-0.3,0.8-0.5c1.1-1.5,2.1-3,3.1-4.5
		c0.2-0.3,0.2-0.7,0.2-1c-0.2-0.8-0.1-1.4,0.5-2c0.6-0.5,1.3-0.6,2-0.2c0.2,0.1,0.6,0.2,0.8,0.1c1.8-0.9,3.7-1.9,5.5-2.8
		c0.2-0.1,0.5-0.4,0.5-0.7c0.2-0.9,0.7-1.4,1.5-1.5c0.8-0.1,1.4,0.3,1.8,1c0.1,0.2,0.4,0.4,0.6,0.5c1.5,0.3,2.9,0.5,4.4,0.7
		c0.2,0,0.6-0.1,0.7-0.2c1.3-1.1,2.7-0.6,3.1,1c0.1,0.3,0.3,0.7,0.6,0.8c1.7,1,3.4,2.1,5.2,3c0.2,0.1,0.6,0.2,0.9,0.1
		c0.7-0.2,1.4-0.2,2,0.4c0.5,0.6,0.6,1.2,0.3,2c-0.1,0.3-0.1,0.7,0,1c1.1,2.1,2.2,4.3,3.3,6.4c0.1,0.2,0.4,0.4,0.7,0.5
		c0.7,0.3,1.2,0.6,1.4,1.4c0.1,0.8-0.1,1.4-0.8,1.9c-0.2,0.1-0.5,0.4-0.5,0.7c-0.4,2-0.7,4-1.1,6c-0.5,2.7-0.6,5.6-2.4,8
		c-0.1,0.2-0.1,0.6,0,0.8c0.4,1,0.2,1.7-0.6,2.3c-0.2,0.2-0.4,0.5-0.4,0.7c-0.1,2-0.2,4.1-0.2,6.1c0,1-0.2,1.6-1.2,1.8
		c-0.4,0.1-0.8,0.1-1.2,0c-0.8-0.2-1.5-0.5-2.1-0.7c-0.8,0.7-1.5,1.3-2.2,2c-0.1,0.1-0.2,0.4-0.2,0.5c0.2,0.9-0.4,1.1-1,1.2
		c-1.6,0.2-2.5,1-2.8,2.6c-0.2,1.2-0.8,1.8-2.1,1.7c-0.1,0-0.1,0.1-0.2,0.2c2.4,2.4,4.9,4.8,7.3,7.2c0.3,0.3,0.6,0.4,1,0.5
		c1.2,0.3,1.9,1.4,1.3,2.5c-0.3,0.5-0.2,0.9,0,1.3c0.2,0.5,0.4,1,0.6,1.5c0.3,0.7,0.6,1.4,1.2,1.9c1,0.7,0.8,2.1-0.3,2.8
		c-0.3,0.2-0.6,0.6-0.8,1c-0.2,0.5-0.4,1.1-0.5,1.7c-0.3,1.1-0.9,2-1.7,2.8c-1.9,1.9-3.9,3.9-5.7,5.9c-0.7,0.7-1.4,1.4-1,2.7
		c0.2,0.8-0.3,1.5-1,1.7c-0.8,0.2-1.1,0.7-1.4,1.3c-0.3,0.6-0.6,1.1-0.9,1.6c-0.4,0.6-0.7,1.2-0.6,2c0.1,0.8-0.4,1.4-1.2,1.6
		c-1.3,0.2-1.9,1.2-2.9,2C152,195.8,162.3,195.8,172.7,195.8z M159.3,74.8c0,0.9,0,1.6,0,2.4c0,1,0.5,1.7,1.5,2.1
		c0.4,0.2,0.9,0.3,1.4,0.3c0.7,0.1,1.2,0.4,1.2,1.2c0,0.7-0.5,1.1-1.3,1c-0.7-0.1-1.4-0.2-2-0.4c-2-0.7-3-2.2-3-4.3
		c0-0.7,0-1.5,0-2.2c-4.5,0-8.9,0-13.4,0c0,0.9-0.1,1.8,0,2.6c0.1,0.9,0.6,1.6,1.5,1.9c0.5,0.2,1.1,0.2,1.6,0.3c0.6,0.1,1,0.5,1,1.2
		c-0.1,0.7-0.5,1-1.1,1c-0.5,0-0.9-0.1-1.4-0.2c-2.4-0.6-3.7-2.2-3.7-4.6c0-0.7,0-1.4,0-2.2c-4.4,0-8.8,0-13.3,0c0,0.8,0,1.6,0,2.4
		c0,1,0.4,1.7,1.3,2c0.6,0.2,1.2,0.3,1.7,0.4c0.6,0.1,1,0.5,1,1.1c0,0.6-0.3,1-0.9,1.1c-2.5,0.4-5.3-1.8-5.3-4.4c0-0.9,0-1.7,0-2.6
		c-4.5,0-8.9,0-13.3,0c0,0.9-0.1,1.8,0,2.7c0.1,0.8,0.6,1.4,1.3,1.7c0.5,0.2,1.1,0.3,1.7,0.4c0.7,0.1,1.1,0.5,1.1,1.2
		c-0.1,0.7-0.5,1-1.2,1c-2.4-0.1-5.2-1.5-5.1-4.8c0-0.7,0-1.5,0-2.2c-4.5,0-8.8,0-13.2,0c0,0.8,0,1.6,0,2.4c0,1,0.5,1.7,1.3,2
		c0.6,0.2,1.2,0.3,1.8,0.4c0.6,0.1,1.1,0.6,0.9,1.1c-0.1,0.4-0.6,0.9-1,1c-2.2,0.4-4.8-1.4-5.2-3.7c-0.2-1.1-0.2-2.2-0.2-3.3
		c-2,0-4,0-5.9,0c0,5,0,9.9,0,14.9c27.9,0,55.7,0,83.5,0c0-5,0-9.9,0-14.9C168.2,74.8,163.8,74.8,159.3,74.8z M138.7,135.9
		c0,0-0.2,0.1-0.2,0.2c-2.7,3.1-6.2,5.3-9.5,7.5c-0.2,0.2-0.4,0.4-0.5,0.7c-0.4,1-1.3,1.5-2.3,1.2c-0.3-0.1-0.7-0.1-1,0
		c-1.9,0.6-3.7,1.5-5.6,2c-2.4,0.6-4.2,1.9-5.4,4.1c-0.3,0.6-0.8,1.1-0.5,1.8c0.1,0.3,0,0.7-0.2,1c-0.3,0.5-0.2,0.8,0,1.2
		c2.2,3.8,4.3,7.6,6.4,11.4c0.3,0.5,0.6,0.8,1.1,0.9c1.2,0.3,1.8,1.7,1,2.6c-0.5,0.6-0.5,1.1-0.5,1.8c0.3,4.2,0.5,8.4,0.8,12.6
		c0.1,1,0.1,1.9,1.4,2.2c1.4-0.8,2.9-1.7,4.4-2.7c0.2-0.1,0.3-0.4,0.3-0.6c0.2-1.1,0.7-1.6,1.8-1.6c0.3,0,0.7-0.1,0.9-0.4
		c2.1-2.1,4.1-4.2,6.1-6.3c0.8-0.8,1.7-1.7,2.7-2.4c1.5-1.1,3-2,4.6-3c1.2-0.8,1.2-0.8,0.9-2.1c-1.8-0.8-3.6-1.4-5.2-2.2
		c-1.7-1-3.5-1.7-5.5-2.1c-1-0.2-1.9-0.5-2.9-0.7c-0.2-0.1-0.6-0.2-0.6-0.4c-0.3-0.9-0.5-1.8-0.8-2.8c2,0.1,3.9,0.2,5.8,0.4
		c0-0.1,0-0.2,0.1-0.3c-0.5-0.2-0.9-0.5-1.4-0.6c-1.8-0.4-3.6-0.7-5.5-1.1c-0.3-0.1-0.8-0.2-0.9-0.4c-0.4-1.1-0.8-2.2-1.2-3.4
		c1.4,0.1,2.6,0.2,3.9,0.2c0-0.1,0.1-0.2,0.1-0.3c-2.4-0.8-4-2.6-5.3-4.7c2.5,0,5,0,7.4,0c0.1-0.1,0.1-0.1,0.2-0.2
		c-2.4-0.7-2.8-2.6-3.3-4.6c2.1,0.4,4.2,0.9,6.2,1.3c1.2,0.2,2.2,0.7,3.2,1.4c1,0.7,2.1,1.4,3.1,2c-0.2-0.8-0.5-1.5-0.8-2.2
		C140.3,143.8,138.7,140,138.7,135.9z M89.2,94.5c27.9,0,55.7,0,83.5,0c0-0.8,0-1.6,0-2.5c-27.8,0-55.6,0-83.5,0
		C89.2,92.9,89.2,93.7,89.2,94.5z M89.1,195.8c5.2,0,10.3,0,15.4,0c-0.8-1.4-1.6-2.6-2.4-3.9c-0.1-0.2-0.5-0.3-0.8-0.4
		c-0.9-0.2-1.6-0.8-1.6-1.7c0-0.6-0.2-0.9-0.6-1.2c-1.7-1.5-3.5-3-5.2-4.5c-0.4-0.3-0.7-0.6-1.4-0.4c-0.4,0.1-0.9-0.1-1.3-0.3
		c-0.7-0.6-1.4-0.2-2.1,0.1c-0.2,0.1-0.2,0.8-0.3,1.2c0,0.3,0,0.5,0,0.8C89.1,188.9,89.1,192.3,89.1,195.8z M147.3,109
		c-0.3,0-0.4,0-0.5,0.1c-2.9,0.8-5.7,1.7-8.6,2.5c-2.8,0.8-5.7,1.7-8.5,2.5c-0.8,0.2-1,0.8-0.3,1.3c2.4,2.1,4.8,4.2,7.2,6.3
		c0.7,0.6,1.8,0.5,2.3-0.3c1.7-2.5,3.3-4.9,5-7.4C145,112.5,146.1,110.8,147.3,109z M112.7,177.2c-3.2,4.1-6.4,8-9.5,12
		c0.1,0.1,0.1,0.1,0.2,0.2c0.2,0,0.4,0,0.7,0c3.1-0.1,6.2-0.3,9.3-0.4c0.7,0,1.4,0,1.9-0.7c0.2-0.2,0.7-0.2,1-0.4
		c0.2-0.1,0.5-0.1,0.6-0.2c0.7-0.9,1.4-1.7,2-2.6C116.8,182.5,114.8,179.9,112.7,177.2z M128.9,113.2c0.3-0.1,0.5-0.2,0.7-0.2
		c5.7-1.7,11.4-3.4,17.2-5.1c0.8-0.2,1-0.9,0.4-1.5c-1.2-1.2-2.4-2.4-3.8-3.4c-0.7-0.5-1.9-0.4-2.8-0.6c0,0-0.1,0-0.1,0
		c-1.9,1-3.8,1.9-5.6,2.9c-0.2,0.1-0.4,0.4-0.4,0.6c-0.2,0.9-0.7,1.4-1.7,1.5c-0.2,0-0.5,0.1-0.6,0.2c-1.1,1.6-2.3,3.2-3.3,4.9
		C128.7,112.7,128.9,113,128.9,113.2z M104,165.3c-0.3-0.7-0.5-1.2-0.8-1.7c-0.6-1.2-0.7-2.6-2.1-3.3c-0.3-0.1-0.3-0.7-0.5-1
		c-0.1-0.2-0.1-0.4-0.2-0.5c-1.6-1.8-3.2-3.6-4.8-5.4c-1.4,1-2.7,2-4.1,2.9c-2.4,1.6-2.3,1.6-2.3,4.5c0,0.7,0.3,0.9,0.8,1
		c3.4,0.8,6.7,1.7,10.1,2.6C101.3,164.7,102.6,165,104,165.3z M136.1,123.5c0-0.1,0.1-0.1,0.1-0.2c-0.2-0.2-0.4-0.5-0.6-0.7
		c-1.4-1.3-2.8-2.6-4.3-3.8c-1.5-1.1-2.5-3-4.7-3c-0.3,0-0.7,0-1,0.1c-0.9,0.5-1.8,1.1-2.8,1.5c-2.5,0.9-5,1.6-7.5,2.3
		c-1.2,0.4-2.5,0.8-3.7,1.2c0,0.1,0,0.1,0,0.2C119.9,121.9,128,122.7,136.1,123.5z M143.4,130c2.6,2.4,5.1,4.7,7.6,6.9
		c0.4,0.4,1.7,0.1,2-0.4c2.1-3.5,4.2-6.9,6.3-10.4c0.2-0.3,0.3-0.6,0.5-0.9c-0.1-0.1-0.1-0.2-0.2-0.3
		C154.3,126.6,148.9,128.3,143.4,130z M89.7,142c0.4-0.1,0.6-0.2,0.7-0.2c3.8-1.6,7.6-3.2,11.3-4.8c0.8-0.4,1.8-0.5,1.9-1.7
		c0-0.2,0.2-0.4,0.4-0.5c-1.2-2.4-2.5-4.7-3.7-7c-0.4-0.8-1.3-0.8-1.8,0c-2.6,4.3-5.3,8.5-7.9,12.8C90.3,140.9,90.1,141.3,89.7,142z
		 M89.1,156.4c4.3-3,8.5-5.9,12.6-8.8c-0.1-0.6-0.3-0.9-0.9-1c-3.5-0.8-6.9-1.7-10.4-2.5c-1.1-0.3-1.3-0.1-1.3,1c0,2.3,0,4.7,0,7
		C89.1,153.5,89.1,154.9,89.1,156.4z M89.2,162.7c0,3.1,0,6,0,8.9c0,0.3,0.1,0.6,0.2,0.9c0.7,1.8,1.4,3.6,2,5.3
		c0.3,0.7,0.6,1.5,1,2.4c1.7-5.3,3.3-10.4,4.9-15.5C94.6,164.1,91.9,163.4,89.2,162.7z M105.3,168c-0.9,6.7-1.7,13.2-2.6,19.9
		c0.2-0.1,0.3-0.2,0.4-0.2c2.9-3.6,5.8-7.3,8.7-11c0.1-0.2,0.1-0.6,0-0.8c-1.9-2.5-3.8-4.9-5.6-7.3
		C105.9,168.3,105.6,168.2,105.3,168z M124.7,123.6c-0.1,1.3-0.2,2.4-0.3,3.5c-0.1,1.2,0.5,1.8,1.8,1.8c1.2,0,2.3,0.2,3.5,0.2
		c1.8,0,3.5,0.6,5,1.5c1.1,0.6,2.2,1.2,3.4,1.7c0.2,0.1,0.5,0.1,0.8,0c0.1-0.1,0.2-0.4,0.2-0.6c-0.4-1.9-0.8-3.8-1.2-5.7
		c0-0.2-0.2-0.4-0.3-0.5c-1.1-0.6-2.1-1.2-3.4-1.2c-1.5,0-3-0.3-4.5-0.4C128,123.8,126.4,123.7,124.7,123.6z M98,167.4
		c-0.1,0-0.1-0.1-0.2-0.1c0,0.1-0.1,0.2-0.1,0.2c-1.3,4.3-2.7,8.5-4,12.8c-0.1,0.2,0.1,0.4,0.2,0.6c0.1,0.4,0.3,0.8,0.4,1.3
		c0.1,0.3,0.2,0.8,0.5,1c1.1,1,2.3,2,3.5,3.1c0.8,0.7,1.6,1.4,2.4,2.1c0.1,0,0.2-0.1,0.3-0.1C99.9,181.2,99,174.3,98,167.4z
		 M148.1,121.7c3.8,0.4,7.5,0.8,11.1,1.1c0.6,0.1,1.2-0.8,1-1.4c-0.8-2.8-1.6-5.6-2.5-8.4c-0.1-0.2-0.2-0.4-0.3-0.6
		c-3.1,2.9-6.1,5.7-9.1,8.5C148.3,121.1,148.3,121.4,148.1,121.7z M122,132c-0.1,0-0.1-0.1-0.2-0.1c-2.6,2.4-5.3,4.8-7.9,7.2
		c-0.9,0.8-1.5,1.9-1.3,3.2c0,0.3,0,0.6-0.1,0.9c-0.2,2.5-0.3,5-0.4,7.5c0,0.4,0.1,0.7,0.2,1.1c0.1,0,0.2,0,0.3,0.1
		c1-1.5,2.1-2.9,2.9-4.5c1.6-3.5,3.1-7.2,4.6-10.8C120.7,135.1,121.4,133.6,122,132z M116.9,147.2c0.3-0.1,0.5-0.1,0.7-0.2
		c2.1-0.8,4.2-1.5,6.3-2.3c0.6-0.2,1.3-0.4,1.2-1.3c0-0.2,0.2-0.4,0.3-0.7c0.1-0.4,0.3-0.8,0.3-1.2c-0.4-2.3-0.9-4.6-1.3-6.9
		c-0.2-1-0.4-2.1-0.6-3.1c-0.1,0-0.1,0-0.2,0C121.3,136.7,119.1,141.9,116.9,147.2z M103.7,144.8c0.3-2,0.6-4,0.9-6
		c0-0.3,0.1-0.8-0.1-1.1c-0.4-0.5-0.9-0.3-1.4-0.1c-3.9,1.7-7.8,3.3-11.7,5c-0.2,0.1-0.4,0.2-0.7,0.4c3.7,0.9,7.3,1.8,10.9,2.6
		c0.2,0,0.4,0,0.6-0.1C102.6,145.3,103.1,145.1,103.7,144.8z M112.6,126.6c0,3.3,0,6.4,0,9.5c0,0.8,0.1,1.4,1,1.8
		c2.7-2.5,5.4-5,8.1-7.5c0.5-0.4,0.4-0.9-0.3-1.1c-1.1-0.4-2.2-0.7-3.3-1C116.3,127.7,114.6,127.2,112.6,126.6z M89.1,140.1
		c0.1,0,0.2,0,0.2,0c2.9-4.7,5.8-9.3,8.7-14.1c-0.3,0-0.5-0.1-0.6,0c-2.6,0.7-5.2,1.4-7.8,2.1c-0.5,0.1-0.6,0.4-0.6,0.9
		c0,3.1,0,6.1,0,9.2C89.1,138.9,89.1,139.5,89.1,140.1z M138.5,159.7c0,0.1-0.1,0.1-0.1,0.2c0.7,0.5,1.3,1,2,1.3
		c3.1,1.6,6.3,3.1,9.5,4.6c0.2,0.1,0.5,0.2,0.7,0.1c1.3-0.5,2.6-1.1,3.7-1.6c0.1-0.8,0.2-1.5,0.2-2.1c0-0.2,0-0.4-0.1-0.5
		c-1.2-1.2-2.4-2.5-3.7-3.7c-0.3,0.2-0.6,0.4-0.9,0.6c-0.7,0.4-1.3,0.8-1.2,1.9c0.1,0.7-0.6,1.3-1.4,1.4c-0.8,0.1-1.4-0.2-1.7-0.8
		c-0.3-0.7-0.8-0.8-1.4-0.8c-0.4,0-0.7-0.1-1.1-0.1C141.5,160,140,159.8,138.5,159.7z M111,140.6c-0.6-1.2-1.4-2-2.6-2.5
		c-0.4-0.1-0.7-0.4-1.1-0.5c-1.1-0.6-1.4-0.4-1.6,0.8c-0.3,1.6-0.5,3.3-0.7,4.9c-0.1,1.1-0.6,2.1,0,3.3c0.1,0.3,0,0.9-0.2,1.1
		c-0.5,0.6-0.7,1.3-0.7,2c-0.1,1-0.3,2-0.5,3c-0.1,0.9-0.2,1.9-0.3,2.9c0.1,0,0.1,0,0.2,0C106.1,150.6,108.6,145.5,111,140.6z
		 M113.4,195.8c0.5-1.4,1-2.8,1.5-4.2c0.2-0.7-0.3-1.5-1-1.5c-3.4,0.1-6.9,0.3-10.3,0.4c-0.6,0-0.8,0.2-0.4,0.8
		c0.8,1.4,1.6,2.7,2.5,4.1c0.1,0.2,0.4,0.4,0.6,0.4C108.6,195.9,111,195.8,113.4,195.8z M101.6,185c0,0,0.1,0,0.1,0
		c0.1-0.2,0.2-0.3,0.2-0.5c0.7-5.2,1.4-10.4,2-15.6c0.2-1.5-0.5-2.6-2-3c-0.6-0.2-1.3-0.3-1.9-0.5c-0.4-0.1-0.8-0.2-1.3-0.2
		C99.8,171.9,100.7,178.5,101.6,185z M127.9,142.5c0.2,0.1,0.3,0.1,0.3,0.1c0.4-0.2,0.8-0.5,1.2-0.7c3-1.9,5.8-4,8.3-6.6
		c0.4-0.5,0.5-1.6,0-1.9c-1.8-0.9-3.5-1.8-5.4-2.7C130.8,134.7,129.3,138.6,127.9,142.5z M149.2,177.3c-0.5,0.2-0.8,0.3-1,0.5
		c-2,1.1-4.1,2.3-6.1,3.4c-0.6,0.3-1.1,1.4-0.8,2c0.8,2.3,1.7,4.5,2.5,6.8c0.1,0.2,0.3,0.4,0.5,0.4c0.2,0,0.4-0.2,0.6-0.4
		c0.5-0.8,0.9-1.6,1.4-2.4c0.2-0.4,0.3-0.7,0-1.2c-0.5-0.8-0.3-1.8,0.5-2.2c0.8-0.4,1-1,1.2-1.8c0.2-0.8,0.4-1.6,0.6-2.4
		C148.7,179.3,148.9,178.4,149.2,177.3z M110.1,121.9c0,0.1-0.1,0.2-0.1,0.3c0.8,1,1.6,2,2.4,3c0.1,0.1,0.3,0.2,0.4,0.2
		c3,0.9,6.1,1.9,9.1,2.8c0.3,0.1,1.2-0.3,1.2-0.5c0.2-1.4,0.3-2.8,0.4-4.2C119,122.9,114.6,122.4,110.1,121.9z M156.9,111.3
		c-1.9-0.8-3.8-1.6-5.6-2.3c-0.7-0.3-1.7,0.2-1.9,1c-0.4,2-0.9,4-1.3,6c-0.3,1.4-0.6,2.8-0.9,4.1c0.1,0,0.1,0.1,0.2,0.1
		C150.6,117.3,153.7,114.4,156.9,111.3z M106.5,121.3c0-0.1,0-0.2,0-0.2c-1.8-0.5-3.6-1.1-5.4-1.6c-0.2-0.1-0.5,0.2-0.8,0.3
		c-0.5,0.1-1.1,0.3-1.7,0.4c-0.3,0.1-0.6,0-0.9,0.2c-2.7,1.9-5.4,3.8-8.1,5.7c-0.2,0.2-0.4,0.5-0.6,0.9c0.3,0,0.4,0.1,0.5,0
		c2.6-0.7,5.2-1.4,7.8-2.1c0.3-0.1,0.4-0.4,0.7-0.6c0.5-0.3,1.1-0.8,1.5-0.7c1.1,0.3,1.9-0.2,2.8-0.6
		C103.8,122.5,105.2,121.9,106.5,121.3z M154,146.3c0.1,0,0.2,0,0.2,0.1c0.4-0.6,0.8-1.2,1.1-1.8c0.2-0.4,0.5-0.5,0.9-0.3
		c0.8,0.3,1.6,0.6,2.4,0.8c0.5,0.2,0.9,0.2,1-0.5c0.1-2.1,0.1-4.3,0.2-6.4c0-0.6-0.6-1-1.2-0.8c-1.5,0.5-3,0.9-4.4,1.5
		c-0.6,0.3-1.2,1.2-1.2,1.8C153.3,142.5,153.7,144.4,154,146.3z M148.1,170.2c-1.3-0.5-2.1,0.3-2.9,0.8c-1.7,1.1-3.4,2.2-5,3.4
		c-1.2,1-2.3,2.2-3.5,3.4c0.4,0,0.5,0,0.7,0c3.4-0.7,6.8-1.4,10.2-2.3c0.5-0.1,1.2-1.1,1.2-1.7C148.7,172.7,148.3,171.4,148.1,170.2
		z M110.4,159.5c-1.2,1.6-2.3,3.2-3.4,4.7c-0.7,0.9-0.4,2.2,0.6,2.7c2.4,1.3,4.9,2.6,7.3,3.9c0.2,0.1,0.4,0.1,0.7,0.3
		C113.8,167.1,112.1,163.4,110.4,159.5z M118.3,182.5c0-0.3,0-0.4,0-0.5c-0.6-2.9-1.2-5.9-1.8-8.8c-0.1-0.3-0.3-0.5-0.6-0.6
		c-2.7-1.4-5.3-2.9-8-4.3c-0.1-0.1-0.3-0.1-0.7-0.2C111,173,114.6,177.7,118.3,182.5z M158.2,124.1c0-0.1,0-0.1,0-0.2
		c-0.1,0-0.3-0.1-0.4-0.1c-3-0.3-6-0.7-9-0.9c-0.8-0.1-1.7,0.4-2.6,0.6c-0.1,0-0.2,0.2-0.2,0.3c-0.9,1.6-1.8,3.2-2.8,5.1
		C148.3,127.3,153.2,125.7,158.2,124.1z M150.8,174.5c0.3-0.2,0.5-0.3,0.7-0.4c1.3-1,2.7-2,4-2.9c0.6-0.4,1.2-0.8,1.2-1.7
		c0-0.3,0.4-0.6,0.5-0.9c0.1-0.2,0.3-0.5,0.2-0.6c-0.4-1-0.8-1.9-1.2-3c-1.7,0.7-3.3,1.4-5,2.2c-0.1,0.1-0.2,0.4-0.3,0.5
		c-0.1,2-0.2,4-0.3,6.1C150.6,173.9,150.7,174.2,150.8,174.5z M131.1,130.5c-0.4-0.1-0.7-0.1-1-0.1c-1.3-0.1-2.5-0.1-3.8-0.2
		c-1.1-0.1-1.7,0.5-1.4,1.6c0.3,1.4,0.6,2.8,0.8,4.3c0.4,1.8,0.7,3.6,1.1,5.5c0.1,0,0.2,0,0.2,0
		C128.4,137.9,129.7,134.2,131.1,130.5z M107,122.1c-1.8,0.8-3.3,1.5-4.8,2.2c-1,0.4-1.4,1.7-0.9,2.7c0.7,1.4,1.5,2.8,2.2,4.2
		c0.5,1,1,1.9,1.5,2.9c0.1,0,0.1,0,0.2,0C105.8,130.1,106.4,126.2,107,122.1z M157.2,106.9c1.5,5.2,3,10.2,4.6,15.5
		c0.7-0.9,1.2-1.7,1.7-2.5c0.2-0.3,0.1-0.6,0.1-1c0-0.5,0.1-1.1,0.1-1.6c0-0.3,0.1-0.7,0-0.9c-1-2.1-2.1-4.2-3.2-6.3
		c-0.1-0.2-0.4-0.4-0.7-0.5c-1-0.2-1.5-0.6-1.6-1.6C158.3,107.3,157.9,107.1,157.2,106.9z M147.3,152.6c-1.4-5-1.5-10.2-4.8-14.4
		c-0.6,0.7-1.2,1.4-1.7,2.1c-0.1,0.2-0.1,0.6-0.1,0.9c0.6,3,2.2,5.5,3.4,8.2c0.1,0.2,0.3,0.4,0.6,0.4c0.8,0.3,1.3,0.9,1.3,1.7
		C146.1,152.1,146.5,152.4,147.3,152.6z M148.2,110.2c-0.1,0-0.1,0-0.2-0.1c-2.9,4.2-5.7,8.4-8.6,12.6c1.8-0.2,3.4-0.5,5-0.9
		c0.1,0,0.3-0.2,0.3-0.3c0.1-0.7,0.5-1.1,1.1-1.4c0.1-0.1,0.3-0.3,0.3-0.5C146.8,116.5,147.5,113.4,148.2,110.2z M112.8,161.4
		c-0.1,0-0.1,0.1-0.2,0.1c1.4,3.1,2.7,6.2,4.2,9.2c1.4,3.1,1.5,6.5,2.6,9.9c0.1-0.3,0.1-0.4,0.1-0.5c0.2-2.6,0.5-5.2,0.7-7.8
		c0-0.6,0.1-1.1-0.6-1.5c-0.3-0.2-0.6-0.8-0.6-1.2c0.2-1-0.3-1.6-0.9-2.2c-0.6-0.6-1.1-1.2-1.6-1.9
		C115.2,164.2,114,162.8,112.8,161.4z M141.6,191.5c0.7,0,1.2-0.7,1-1.3c-0.8-2.1-1.5-4.2-2.3-6.2c-0.3-0.7-0.6-0.8-1.1-0.1
		c-1.2,1.7-2.4,3.4-3.6,5.1c-0.3,0.5-0.1,1.3,0.5,1.4C137.9,190.8,139.8,191.2,141.6,191.5z M143.8,137.8c1.3,2.1,1.9,4.4,4.3,5.5
		c1.6,0.7,3,1.7,4.7,2.6c-0.2-1.4-0.5-2.7-0.6-3.9c-0.1-0.8-0.1-1.6-1.1-1.9c-0.1,0-0.2-0.3-0.4-0.4c-0.3-0.2-0.6-0.5-1-0.7
		c-0.4-0.2-0.9-0.2-1.4-0.3C146.9,138.5,145.4,138.2,143.8,137.8z M108.1,123.9c0,0-0.1,0-0.1,0c-0.1,0.3-0.1,0.5-0.2,0.8
		c-0.4,2.8-0.8,5.7-1.3,8.5c-0.3,1.4,0.3,2.9,1.6,3.4c0.6,0.2,1.1,0.6,1.7,0.9c0.3,0.1,0.6,0.1,0.9,0.2c0.1-0.3,0.2-0.7,0.1-1
		c-0.4-2.1-0.8-4.1-1.3-6.2C109.1,128.3,108.6,126.1,108.1,123.9z M153.6,137.7c0.1,0.1,0.1,0.1,0.2,0.2c1.4-0.5,2.7-1,4.1-1.4
		c0.6-0.2,1.1-0.4,1.2-1.1c0.1-0.3,0.5-0.7,0.8-0.8c0.7-0.2,0.7-0.6,0.7-1.2c0-2,0.1-4,0.2-6c0-0.4,0.1-0.8,0.1-1.3
		c-0.1,0-0.1,0-0.2-0.1C158.3,129.9,156,133.8,153.6,137.7z M107.3,155.2c-0.6,0.6-1.2,1.1-1.7,1.6c-0.7,0.8-1.7,1.4-1.5,2.7
		c0,0.2-0.1,0.4-0.2,0.5c-0.9,0.6-0.4,1.3-0.1,2c0.2,0.3,0.3,0.7,0.4,1c0.3,0.5,0.6,1,0.9,1.5c0.4-0.4,0.8-0.8,1.1-1.2
		c1.3-1.7,2.5-3.5,3.7-5.2C109,157.1,108.2,156.2,107.3,155.2z M96.6,152.7c1.5,1.7,3.1,3.4,4.7,5.2c0.3-0.4,0.6-0.6,0.7-0.9
		c0.4-2.8,0.8-5.6,1.2-8.4C102.5,148.5,98.3,151.2,96.6,152.7z M149.3,171.3c0.1,0,0.2,0,0.2-0.1c0.1-1.1,0.1-2.3,0.2-3.4
		c0-0.5-0.1-0.8-0.6-1.1c-2.5-1.2-4.9-2.4-7.4-3.7c-1-0.5-2-1.2-3-1.4c-2.1-0.4-4.3-0.6-6.5-0.8c-0.1,0.7,0.1,1,0.7,1.1
		c3.1,0.7,6.2,1.5,8.9,3.3c1.2,0.8,2.6,1.1,3.9,1.6c0.2,0.1,0.5,0,0.8-0.1c1.5-0.6,2.6,0.3,2.5,2
		C149.1,169.6,149.3,170.5,149.3,171.3z M142.5,193.2c-0.3-0.2-0.4-0.4-0.6-0.5c-2-0.4-4.1-0.8-6.1-1.2c-0.6-0.1-1.7,0.6-1.8,1
		c-0.2,1.1-0.3,2.2-0.5,3.3c2,0,3.9,0,5.8,0c0.2,0,0.4-0.1,0.5-0.2C140.7,194.9,141.5,194.1,142.5,193.2z M119.1,72.5
		c0.1-1.7,0.4-3.4-1.3-4.5c-1.1-0.7-3-0.6-3.9,0.1c-1.1,0.9-1.5,2.7-0.9,4.4C115,72.5,117,72.5,119.1,72.5z M143.8,72.5
		c2.1,0,4.2,0,6.3,0c0-1.7,0.4-3.5-1.5-4.5c-1.2-0.7-2.6-0.7-3.7,0.1C143.3,69.2,143.8,70.9,143.8,72.5z M97.5,72.6
		c1.1,0,2.1,0,3.1,0c1,0,2,0,3.1,0c0-0.9,0-1.6,0-2.3c0-1.4-1-2.5-2.4-2.7c-2-0.3-3.3,0.4-3.7,1.9c0,0.1-0.1,0.2-0.1,0.2
		C97.5,70.7,97.5,71.6,97.5,72.6z M134.5,72.5c0.5-1.6,0.2-3.5-0.9-4.3c-1-0.8-3-0.9-4-0.2c-1.7,1.2-1,2.9-1.2,4.6
		C130.5,72.5,132.5,72.5,134.5,72.5z M165.6,72.5c0-1.7,0.4-3.5-1.4-4.5c-1.1-0.7-2.9-0.6-3.8,0.1c-1.5,1.2-0.9,2.8-1,4.4
		C161.5,72.5,163.5,72.5,165.6,72.5z M146.8,158.2c-3.1-1.9-6.2-3.9-9.3-5.8c-0.8-0.5-1.9-0.6-2.8-0.9c0.9,1.4,1.8,2.7,2.8,3.8
		c0.4,0.5,1.1,0.9,1.7,1.2c1.6,0.7,3.2,1.2,4.8,1.9C145,158.8,145.9,159.2,146.8,158.2z M140.2,131.8c1.7-3,3.2-5.9,4.8-8.8
		c-1.8,0.4-3.5,0.6-5.1,1.1c-0.5,0.2-1,1.1-1,1.6C139.3,127.7,139.8,129.6,140.2,131.8z M146.5,143.6c0.7,3,1.3,5.9,2,8.7
		c0.1,0,0.2,0,0.3,0.1c0.2-0.4,0.4-0.7,0.5-1.1c0.4-1.7,1.2-3,3.2-3.1c0,0,0.1,0,0.1,0c0.2-0.1,0.4-0.3,0.4-0.4
		c0-0.2-0.2-0.4-0.4-0.5C150.7,146.1,148.7,145,146.5,143.6z M137,150.2c0,0.1-0.1,0.1-0.1,0.2c4,2.6,7.9,5.1,11.9,7.7
		c0.4-0.3,0.7-0.6,1.1-0.9c-1.5-1.4-2.8-2.7-4.2-4c-0.1-0.1-0.5-0.2-0.7-0.1c-1,0.3-1.7,0-2.2-0.8c-0.1-0.1-0.2-0.3-0.4-0.3
		C140.6,151.3,138.8,150.8,137,150.2z M111.4,142.9c-0.1,0-0.2,0-0.2-0.1c-2.2,4.3-4.3,8.7-6.5,13c2.1-1.9,4-4,5.9-6
		c0.1-0.1,0.2-0.3,0.3-0.5C111.1,147.2,111.3,145.1,111.4,142.9z M133.8,188.8c0.4-0.3,0.7-0.5,0.9-0.8c1.1-1.5,2.1-3,3.2-4.5
		c0.1-0.2,0.2-0.5,0.3-0.7c-0.3,0-0.6-0.2-0.9-0.1c-1.5,0.4-2.9,0.8-4.4,1.1c-1.5,0.4-1.9,1.3-1.1,2.6c0.3,0.5,0.6,1.1,1,1.6
		C133.1,188.4,133.4,188.6,133.8,188.8z M144.4,102c0,0.1-0.1,0.1-0.1,0.2c1.1,1.1,2.3,2.1,3.4,3.2c0.4,0.4,0.8,0.7,1.5,0.6
		c0.3,0,0.7,0.2,1,0.4c0.2,0.1,0.4,0.3,0.6,0.2c1.4-0.3,2.7-0.7,4.3-1.1c-0.4-0.2-0.5-0.4-0.7-0.5c-0.7-0.4-1.4-0.8-2.1-1.2
		c-0.2-0.1-0.5,0-0.7,0.1c-1,0.4-1.8,0.1-2.3-0.8c-0.1-0.2-0.3-0.4-0.5-0.5C147.3,102.4,145.9,102.2,144.4,102z M108.1,154.3
		c3,3.5,6,6.9,9,10.3c0.1-0.1,0.1-0.2,0-0.3c-1.6-2.8-3.2-5.7-4.8-8.5c-0.1-0.2-0.4-0.4-0.6-0.5c-1.5-0.5-1.9-1.7-0.9-3
		c0.2-0.2,0.2-0.6,0.3-0.9c-0.1,0-0.2-0.1-0.2-0.1C109.9,152.3,109,153.3,108.1,154.3z M129.9,191.8c-0.2-2.2-0.4-4.3-0.6-6.6
		c-1.9,1.1-3.6,2.1-5.3,3.1c-0.3,0.2-0.5,0.6,0.1,0.8C126,190,127.9,190.9,129.9,191.8z M150.4,138.3c0-0.1,0.1-0.2,0.1-0.2
		c-2.5-2.3-5.1-4.6-7.6-6.9c-0.1,0-0.1,0.1-0.2,0.1c0.1,1.1,0.3,2.2,0.4,3.4c0.2,1.9,0.2,1.9,2,2.4
		C146.8,137.4,148.6,137.8,150.4,138.3z M114.6,195.8c1.1,0,2.1,0,3.1,0c2.3,0,2.3,0,2.9-2.2c0.2-0.5,0-0.7-0.4-1
		c-0.7-0.5-1.4-0.9-2.1-1.4c-0.4-0.3-1.8,0.1-2,0.6C115.6,193.1,115.1,194.4,114.6,195.8z M142.1,159c-4.1-1.8-8.2-3.6-12.9-3.2
		c0.1,0.7,0.3,1.3,1.3,1.4c2.3,0.3,4.6,0.9,7,1.3C139,158.7,140.6,158.8,142.1,159z M123.1,194.7c2-0.7,3.9-1.3,6-2
		c-2.2-1-4.2-1.9-6.4-2.9C122.9,191.5,123,193.1,123.1,194.7z M155.2,176.2c0-0.1-0.1-0.1-0.1-0.2c-0.8,0.1-1.7,0.3-2.5,0.2
		c-1.3-0.2-1.9,0.8-2.2,1.5c-0.6,1.4-0.8,3-1.2,4.5c0.1,0,0.1,0.1,0.2,0.1C151.3,180.3,153.3,178.2,155.2,176.2z M135.7,155.4
		c0.1-0.1,0.1-0.2,0.2-0.3c-1-1.4-2.1-2.8-3.2-4.1c-0.1-0.1-0.2-0.2-0.4-0.2c-1.2,0-2.5,0-3.7,0c0,0.1-0.1,0.2-0.1,0.3
		C130.6,153,133.3,153.9,135.7,155.4z M89.1,125.1c2.4-1.7,4.7-3.3,6.9-4.9c0-0.1-0.1-0.1-0.1-0.2c-2.1,0.5-4.2,1.1-6.3,1.6
		c-0.2,0.1-0.5,0.3-0.5,0.5C89.1,123,89.1,123.9,89.1,125.1z M137.3,179.1c0,0.1,0,0.3,0,0.4c1.2,0.3,2.4,0.6,3.6,0.9
		c0.1,0,0.2,0,0.2-0.1c1.8-1,3.6-2,5.4-3c0-0.1,0-0.1-0.1-0.2C143.4,177.8,140.4,178.5,137.3,179.1z M161.8,132.2
		c0.6-0.7,2.5-9.7,2.3-11.2c-0.4,0.6-0.9,1.2-1.3,1.8c-0.1,0.2-0.1,0.4-0.1,0.6c-0.1,0.4-0.1,0.9-0.2,1.3c-0.2,0.6-0.4,1.2-0.5,1.8
		c-0.1,1-0.1,2.1-0.2,3.1C161.8,130.5,161.8,131.4,161.8,132.2z M131.5,195.8c0.8,0.1,0.8,0.1,0.9-0.6c0.1-0.9,0.3-1.7,0.4-2.6
		c0-0.3-0.2-0.7-0.2-1c-0.1-0.6-0.3-1.1-0.4-1.7c0-0.2,0.2-0.4,0.1-0.6c-0.5-0.8-1-1.6-1.4-2.4c-0.1,0-0.1,0.1-0.2,0.1
		C130.9,190,131.2,192.9,131.5,195.8z M109.4,123.3c-0.1,0-0.1,0.1-0.2,0.1c0.7,3.4,1.3,6.8,2,10.1c0.1,0,0.2,0,0.2,0
		c0-2.4,0-4.8,0-7.2c0-0.2-0.1-0.3-0.2-0.5C110.7,125,110.1,124.2,109.4,123.3z M141.6,150.3c-2.2-2.1-6.1-3.6-9.6-3.7
		c0.2,0.3,0.5,0.7,0.9,0.9c0.6,0.3,1.2,0.4,1.8,0.6C136.9,148.9,139.2,149.6,141.6,150.3z M132,182.8c0,0.1,0.1,0.1,0.1,0.2
		c1.8-0.5,3.7-1,5.5-1.5c0.1,0,0.3-0.2,0.3-0.4c0-0.1-0.2-0.3-0.3-0.3c-0.7-0.4-1.4-0.8-2.1-1.1c-0.2-0.1-0.5,0-0.6,0.1
		C133.9,180.8,133,181.8,132,182.8z M151.6,107.7c0,0.1,0,0.1,0,0.2c1.7,0.7,3.4,1.4,5.3,2.2c-0.4-1.3-0.7-2.4-1-3.5
		C154.4,107,153,107.3,151.6,107.7z M152.4,174.8c0,0.1,0.1,0.2,0.1,0.2c1.2-0.1,2.4-0.1,3.6-0.2c0.1,0,0.3-0.1,0.4-0.3
		c0.3-1,0.7-2.1,1-3.1c-0.1-0.1-0.2-0.1-0.2-0.2C155.6,172.5,154,173.7,152.4,174.8z M130.1,193.6c-2.2,0.7-4.2,1.4-6.3,2.1
		c0,0.1,0,0.1,0.1,0.2c2.1,0,4.3,0,6.4,0c0-0.2,0-0.3,0-0.4C130.2,194.8,130.2,194.3,130.1,193.6z M141.6,132.2c-0.1,0-0.2,0-0.3,0
		c0,0.3-0.1,0.6,0,0.9c0.3,1.2,0.2,1.6-0.8,2.4c-0.1,0.1-0.3,0.3-0.3,0.4c-0.3,1-0.5,2.1,0.2,3.2c0.5-0.6,0.9-1.1,1.4-1.7
		c0.2-0.2,0.4-0.5,0.4-0.8C142,135.2,141.8,133.7,141.6,132.2z M120.9,191.9c0.1-1.2,0.5-2.3-0.6-3.1c-0.8,0.3-1.6,0.5-2.7,0.9
		C118.8,190.4,119.8,191.1,120.9,191.9z M121.4,186.1c-0.2-2.6-0.3-4.9-0.5-7.3c-0.3,1.7-0.4,3.3-0.6,5
		C120.1,184.8,120.5,185.4,121.4,186.1z M89.2,182.2c1,0,1.7-0.4,1.9-1.3c0.1-0.3,0-0.7-0.2-1c-0.1-0.1-0.4-0.2-0.6-0.2
		c-0.4,0-0.8,0.1-1.1,0.2C89.2,180.7,89.2,181.4,89.2,182.2z M118.1,188c0,0.1,0.1,0.1,0.1,0.2c0.4-0.1,0.8-0.2,1.1-0.3
		c1.6-0.5,1.6-0.6,0.4-1.7c0,0-0.1,0-0.2,0C119.1,186.8,118.6,187.4,118.1,188z M89.4,175.7c-0.1,0-0.1,0-0.2,0c0,0.9,0,1.9,0,2.9
		c0.4,0,0.8-0.1,1.3-0.1C90.1,177.5,89.7,176.6,89.4,175.7z M121,195.9c0.9-0.4,1.1-0.9,0.6-2C121.5,194.5,121.3,195.1,121,195.9z"
		/>
	<path d="M80.9,155.1c0,11.5,0,22.9,0,34.4c0,1.1-0.1,2.2-1.1,2.9c-0.6,0.4-1.4,0.8-2.1,0.8c-2,0.1-4.1,0-6.1,0
		c-1.9,0-3.2-1.3-3.2-3.2c0-6.4,0-12.9,0-19.3c0-11.5,0.1-23,0.1-34.4c0-5.2,0-10.4,0.1-15.6c0-0.7,0.2-1.4,0.5-2
		c1.5-3.2,3.1-6.3,4.7-9.4c0.2-0.4,0.7-0.9,1.1-0.9c0.3,0,0.8,0.5,1,0.9c1.7,3.2,3.3,6.5,4.9,9.8c0.2,0.4,0.3,0.9,0.3,1.3
		c0,4.5,0,8.9,0,13.4c0,7.1,0,14.2,0,21.3C81,155.1,81,155.1,80.9,155.1z M79.1,182.8c0-0.4,0-0.8,0-1.1c0.1-9.4,0.1-18.8,0.1-28.3
		c0-10.7,0-21.4,0-32c0-0.6-0.2-0.8-0.7-1c-2.4-0.9-4.8-1-7.2-0.1c-0.8,0.3-1.1,0.6-1.1,1.5c0,2.9,0,5.8,0,8.8
		c0,17.1-0.1,34.1-0.1,51.2c0,0.3,0,0.7,0,1C73.2,182.8,76.1,182.8,79.1,182.8z M70.3,187.5c0,1,0,1.9,0,2.8c0,0.8,0.5,1.2,1.3,1.2
		c2.1,0,4.2,0.1,6.3,0c0.4,0,1.1-0.6,1.2-1c0.2-1,0.1-2,0.1-3C76.1,187.5,73.3,187.5,70.3,187.5z M78.5,118.4
		c-0.2-0.4-0.3-0.5-0.4-0.7c-0.4-0.9-0.7-2.1-1.4-2.5c-0.7-0.4-1.9-0.2-2.9-0.2c-0.2,0-0.4,0-0.5,0c-0.2,0-0.4,0.1-0.5,0.3
		c-0.5,1-1,2-1.6,3.2C73.7,117.7,76,117.8,78.5,118.4z M79.1,184.7c-3,0-5.9,0-8.8,0c0,0.3,0,0.6,0,1c2.9,0,5.8,0,8.7,0
		C79.1,185.3,79.1,185,79.1,184.7z M74.9,111.2c-0.4,0.8-0.7,1.4-1,2.1c0.7,0,1.3,0,2,0C75.6,112.6,75.3,112,74.9,111.2z"/>
	<path d="M233.2,97.1c-2.4,0.7-4.7,1.3-7.1,2c-1,0.3-2,0.6-3,0.8c-1,0.2-1.9-0.2-2.1-1.1c-0.3-1,0.2-1.8,1.3-2.1
		c2-0.6,4.1-1.2,6.2-1.8c2.6-0.7,5.3-1.5,7.9-2.2c0.9-0.3,1.8,0.1,2.3,0.8c0.5,0.8,0.5,1.7-0.2,2.5c-2.1,2.5-4.3,5-6.4,7.5
		c-0.9,1-1.7,2-2.8,3.2c2.8-0.8,5.3-1.5,7.8-2.2c0.9-0.2,1.7-0.5,2.6-0.8c1.5-0.3,2.5,0.4,2.3,1.8c-0.1,0.9-0.8,1.2-1.6,1.5
		c-2.8,0.8-5.6,1.6-8.4,2.4c-1.7,0.5-3.3,0.9-5,1.4c-1.3,0.4-2.1,0.2-2.6-0.5c-0.6-0.9-0.5-2.1,0.2-3c1-1.2,2-2.4,3-3.5
		c1.9-2.2,3.8-4.4,5.7-6.5C233.2,97.2,233.2,97.2,233.2,97.1z"/>
	<path d="M24.6,76c2.8,1.7,5.7,3.5,8.5,5.2c1.2,0.7,1.5,1.5,1.1,2.4c-0.4,0.8-1.1,1.2-1.9,0.9c-0.9-0.4-1.7-0.9-2.5-1.4
		c-3.4-2.1-6.8-4.2-10.2-6.3c-1.3-0.8-1.7-2.1-0.8-3.2c0.4-0.5,1.2-0.8,1.8-0.9c2-0.2,4-0.1,6-0.2c2.5-0.1,5-0.2,7.5-0.4
		c-0.2-0.2-0.4-0.4-0.7-0.5c-2.5-1.6-5.1-3.1-7.6-4.7c-0.2-0.1-0.5-0.3-0.7-0.5c-0.9-0.7-1.1-1.5-0.7-2.3c0.5-0.8,1.3-1,2.3-0.5
		c1.2,0.7,2.4,1.4,3.5,2.1c2.7,1.6,5.4,3.3,8,4.9c0.3,0.2,0.5,0.3,0.8,0.5c1.1,0.7,1.4,1.4,1.2,2.1c-0.3,1.1-1.1,1.8-2.3,1.9
		c-3.6,0.1-7.1,0.2-10.7,0.4c-0.9,0-1.8,0-2.7,0C24.6,75.8,24.6,75.9,24.6,76z"/>
	<path d="M16.3,108.3c2-1.8,4.3-2.8,6.7-3.3c1-0.2,1.7,0,2,0.8c0.3,0.8,0,1.8-0.7,2.3c-0.4,0.2-0.8,0.4-1.2,0.6
		c-1.3,0.5-2.6,1-3.9,1.4c-2.2,0.7-3.8,2-3.7,4.7c1.3,0.2,2.6,0.5,4,0.8c0.6,0.1,1.2,0.2,1.8,0.4c1.1,0.3,1.7,1,1.6,1.9
		c-0.2,1.1-0.8,1.7-2.1,1.5c-2.1-0.3-4.3-0.7-6.4-1.1c-2.5-0.5-5-1-7.6-1.5c-1.4-0.3-2-1-1.8-2.4c0.5-2.6,0.9-5.2,1.6-7.8
		c0.8-3,3.4-4.3,6.3-3.4c1.8,0.6,3,2,3.1,4C16.2,107.5,16.2,107.8,16.3,108.3z M13.1,114.3c0.3-1.8,0.6-3.4,0.7-5.1
		c0.1-1.5-0.6-2.4-1.8-2.6c-1.4-0.2-2.4,0.4-2.8,2c-0.4,1.5-0.7,3.1-1,4.7C9.7,113.6,11.3,113.9,13.1,114.3z"/>
	<path d="M244.5,138.1c-0.1,1.5-0.2,3.5-0.5,5.4c-0.5,3.3-2.8,5.5-6.2,6c-2.2,0.3-4.3,0.1-6.3-0.6c-3.5-1.1-5.3-3.9-5.1-7.9
		c0.1-1.9,0.3-3.7,0.5-5.5c0.1-1.2,0.7-1.7,1.9-1.7c2.5,0.2,5,0.4,7.5,0.6c2.1,0.2,4.2,0.3,6.3,0.6
		C244.3,135.3,244.5,135.7,244.5,138.1z M241.6,138.6c-1.9-0.2-3.6-0.3-5.3-0.5c-2.1-0.2-4.1-0.4-6.2-0.5c-0.4,0-0.7,0.1-0.7,0.6
		c0,1.1-0.2,2.1-0.2,3.2c0,2.1,0.9,3.4,2.9,4.1c1.7,0.6,3.4,0.8,5.2,0.6c2.2-0.3,3.4-1.3,3.8-3.4C241.4,141.3,241.5,140,241.6,138.6
		z"/>
	<path d="M5.3,150.9c0-3.5,1.8-6.1,5.1-7.4c2.1-0.9,4.4-1.2,6.6-0.8c3.3,0.5,5.3,2.5,6.3,5.7c1.2,3.8,0.3,7.3-2.3,9.5
		c-2.1,1.7-4.6,2.3-7.3,2.3c-4.8-0.1-8.1-3.3-8.3-8C5.3,151.7,5.3,151.3,5.3,150.9z M14.9,146.1c-1.5,0.1-3.4,0.4-5,1.7
		c-1.5,1.2-2,2.9-1.6,4.8c0.4,1.7,1.4,3,3.1,3.5c2.7,0.8,5.3,0.3,7.7-1.3c1-0.7,1.7-1.8,1.8-3.1C21.2,148.5,18.9,146.1,14.9,146.1z"
		/>
	<path d="M233.8,180.7c0,3.8-2.7,7.7-6.2,8.8c-1.6,0.5-3.1,0.4-4.6-0.1c-2.5-0.7-4.8-2-6.4-4.1c-2.1-2.8-1.9-6.7,0.4-10.1
		c2.5-3.6,6.6-4.6,11-2.5c1.6,0.7,3,1.7,4.2,3.1C233.3,177.2,233.9,178.7,233.8,180.7z M223.3,175.2c-2,0.1-3.5,0.8-4.4,2.5
		c-0.9,1.7-1,3.4,0.1,4.9c1.9,2.5,4.4,3.8,7.6,3.6c1.9-0.1,3.1-1.3,3.8-3c0.7-1.6,0.6-3.2-0.5-4.6
		C228.2,176.5,225.9,175.5,223.3,175.2z"/>
	<path d="M153.8,15.6c2.1,0.1,4.1,0.6,5.8,2c1.2,1,1.9,2.2,1.8,3.9c-0.1,0.9-0.6,1.5-1.4,1.6c-0.9,0.1-1.4-0.2-1.7-1.2
		c-0.1-0.3-0.1-0.6-0.2-0.9c-0.5-2.1-3.2-3.4-5.1-2.5c-1.3,0.6-1.6,1.8-0.6,2.8c0.5,0.5,1.1,0.9,1.6,1.2c1.3,0.8,2.7,1.6,3.9,2.5
		c1.6,1.1,2.4,2.8,2,4.8c-0.4,2.1-1.6,3.5-3.6,4.2c-3.2,1-7.7-0.4-9.4-3c-0.8-1.2-1.2-2.4-0.9-3.9c0.2-0.9,0.7-1.2,1.6-1.2
		c0.9,0,1.3,0.5,1.5,1.3c0.1,0.6,0.2,1.1,0.3,1.7c0.4,2.5,4.3,3.4,6,2.2c1.3-0.9,1.3-2.7-0.1-3.7c-1-0.7-2.1-1.2-3.1-1.9
		c-0.9-0.6-1.9-1.3-2.7-2.1c-1.3-1.3-1.4-3-0.8-4.7c0.7-1.7,2.1-2.6,3.9-2.8C153.1,15.6,153.4,15.6,153.8,15.6z"/>
	<path d="M61.2,46.1c-1.8,1.4-3.5,2.8-5.3,4.2c-0.2,0.2-0.3,0.6-0.2,0.8c0.2,0.9,0.6,1.9,0.8,2.8c0.3,1.2,0,2.1-0.9,2.3
		c-1,0.3-1.9-0.2-2.3-1.4c-1.5-4.8-2.9-9.7-4.4-14.6c-0.3-1-0.2-2,0.7-2.8c1-0.8,2.1-0.8,3.2-0.2c3.5,2,7,4,10.5,6
		c0.9,0.5,1.9,1.1,2.8,1.7c1,0.7,1.2,1.5,0.7,2.4c-0.5,0.9-1.4,1.1-2.5,0.5C63.3,47.3,62.3,46.7,61.2,46.1z M54.6,47.9
		c1.4-1.1,2.8-2.2,4.2-3.3c-2.3-1.4-4.4-2.7-6.5-4c0,0.1-0.1,0.1-0.1,0.2C52.9,43,53.7,45.4,54.6,47.9z"/>
	<path d="M219.3,59.6c1.7,0,3.1,1.8,2.3,3.3c-0.8,1.7-1.9,3.3-2.8,4.9c-1.6,2.6-3.2,5.2-4.8,7.8c-0.3,0.5-0.7,1-1.1,1.4
		c-0.5,0.6-1.5,0.7-2.1,0.3c-0.7-0.5-1-1.3-0.6-2.1c0.5-1,1.1-1.9,1.7-2.9c0.3-0.4,0.3-0.7,0-1.1c-1.2-1.6-2.4-3.2-3.5-4.8
		c-0.3-0.4-0.6-0.5-1.2-0.4c-1,0.3-2,0.6-3.1,0.8c-0.9,0.2-1.4-0.1-1.8-0.9c-0.3-0.8-0.1-1.6,0.6-2c0.5-0.3,1.1-0.5,1.7-0.6
		c4.4-1.2,8.9-2.4,13.3-3.5C218.4,59.7,218.8,59.7,219.3,59.6z M210.6,65.1c1.1,1.5,2.1,2.9,3.2,4.3c1.5-2.2,2.8-4.3,4.2-6.4
		c0,0-0.1-0.1-0.1-0.1C215.5,63.6,213.2,64.3,210.6,65.1z"/>
	<path d="M189.7,34.9c-1.2-0.8-2.2-1.6-3.3-2.3c-0.9-0.6-1.1-1.4-0.6-2.1c0.5-0.8,1.3-0.9,2.2-0.3c3.3,2.2,6.5,4.5,9.8,6.8
		c0.8,0.6,1,1.3,0.5,2.1c-0.5,0.7-1.3,0.8-2.1,0.3c-1.2-0.7-2.3-1.5-3.5-2.4c-0.8,1.2-1.6,2.3-2.4,3.4c-1.7,2.4-3.4,4.9-5.1,7.3
		c-0.5,0.7-1.1,1.2-2,1c-0.7-0.2-1.3-0.7-1.3-1.4c0-0.6,0.3-1.3,0.6-1.9c2.2-3.3,4.5-6.5,6.7-9.7C189.4,35.4,189.5,35.2,189.7,34.9z
		"/>
	<path d="M37,186.7c-0.1,1.9-1.7,4.1-3.4,4.8c-0.8,0.3-1.4,0.1-1.8-0.5c-0.5-0.6-0.6-1.3,0-2c0.5-0.5,1-1,1.5-1.5
		c0.7-0.8,0.8-1.7,0.2-2.7c-0.5-0.9-1.4-1.3-2.4-1c-0.7,0.2-1.4,0.5-2.1,0.9c-2.7,1.5-5.3,3-8,4.5c-0.2,0.1-0.5,0.2-0.7,0.4
		c-1,0.4-1.9,0.2-2.4-0.6c-0.5-0.9-0.3-1.8,0.7-2.4c1.7-1,3.5-2,5.2-3c1.3-0.7,2.6-1.5,3.9-2.2c4-2.2,7.4-0.9,8.9,3.4
		C36.7,185.4,36.8,186.1,37,186.7z"/>
	<path d="M88.7,33c2.1-0.7,4.2-1.4,6.2-2.1c0.4-0.1,0.8-0.2,1.1-0.3c0.9-0.2,1.5,0.1,1.8,0.8c0.3,0.8,0,1.5-0.8,1.8
		c-1.1,0.5-2.3,0.8-3.5,1.2c-1.8,0.6-3.5,1.2-5.3,1.8c-1.5,0.5-2.2,0.1-2.7-1.4c-1.5-4.4-3-8.9-4.4-13.3c-0.5-1.5,0.4-2.6,1.9-2.5
		c0.8,0.1,1.2,0.6,1.4,1.3c0.7,2,1.3,3.9,2,5.9C87.2,28.5,87.9,30.7,88.7,33z"/>
	<path d="M122.8,26c0,0.8,0,1.7,0,2.6c-0.1,1-0.7,1.5-1.6,1.5c-1,0-1.7-0.5-1.8-1.5c-0.1-0.8-0.1-1.7-0.2-2.5c-0.1-3-0.1-6-0.2-9
		c0-1.2-0.1-2.3-0.1-3.5c0-1.2,0.8-2,1.8-1.9c1,0,1.7,0.8,1.7,2C122.5,17.7,122.7,21.8,122.8,26z"/>
	<path d="M116.1,235.6c0,1.5-1.2,2.7-2.7,2.7c-1.5,0-2.7-1.2-2.7-2.7c0-1.5,1.2-2.7,2.7-2.7C114.8,232.8,116.1,234,116.1,235.6z"/>
	<path d="M66,216.5c0,1.5-1.2,2.7-2.7,2.7c-1.5,0-2.7-1.2-2.7-2.7c0-1.4,1.3-2.7,2.7-2.8C64.8,213.7,66,215,66,216.5z"/>
	<path d="M191.7,214c0,1.5-1.2,2.7-2.7,2.8c-1.5,0-2.8-1.3-2.8-2.8c0-1.5,1.2-2.7,2.8-2.7C190.6,211.3,191.7,212.5,191.7,214z"/>
	<path d="M90,229.5c0,1.5-1.2,2.7-2.7,2.7c-1.5,0-2.7-1.2-2.7-2.8c0-1.5,1.2-2.7,2.7-2.7C88.8,226.8,90,228,90,229.5z"/>
	<path d="M163.5,228.1c0-1.6,1.1-2.7,2.8-2.7c1.5,0,2.6,1.2,2.6,2.8c0,1.5-1.2,2.7-2.7,2.7C164.7,230.8,163.5,229.6,163.5,228.1z"/>
	<path d="M143.1,235.4c0,1.5-1.2,2.7-2.7,2.7c-1.5,0-2.7-1.2-2.7-2.7c0-1.5,1.2-2.7,2.7-2.8C141.8,232.6,143.1,233.9,143.1,235.4z"
		/>
	<path d="M227.2,42.8c0.2-0.7,0.4-1.4,0.6-2.1c0.1-0.6,0.4-0.8,1-0.8c0.7,0.1,0.6,0.5,0.6,0.9c0,1.1,0,2.1,0,3.2
		c0,0.2-0.2,0.4-0.4,0.7c-0.1-0.2-0.4-0.4-0.4-0.6c-0.1-0.8,0-1.6-0.2-2.5c-0.2,0.8-0.4,1.6-0.6,2.3c-0.1,0.3-0.4,0.5-0.6,0.8
		c-0.2-0.2-0.5-0.5-0.6-0.8c-0.3-0.7-0.4-1.5-0.8-2.3c0,0.7,0,1.5,0,2.2c0,0.3-0.3,0.5-0.4,0.8c-0.1-0.2-0.4-0.5-0.4-0.7
		c0-1.1,0-2.2,0-3.3c0-0.4,0.1-0.8,0.6-0.8c0.3,0.1,0.8,0.3,1,0.6c0.3,0.7,0.4,1.5,0.7,2.2C227.1,42.8,227.2,42.8,227.2,42.8z"/>
	<path d="M221.8,40.7c-0.4,0-0.8,0-1.1,0c-0.1,0-0.3-0.2-0.3-0.3c0-0.1,0.1-0.3,0.2-0.3c1.2,0,2.5,0.1,3.7,0.1c0,0,0,0.1,0.1,0.3
		c-0.5,0.1-1,0.2-1.6,0.3c0,1,0,2,0,3c0,0.3-0.3,0.6-0.5,0.9c-0.2-0.3-0.4-0.6-0.4-0.9C221.8,42.8,221.8,41.8,221.8,40.7z"/>
	<path class="st0" d="M121,195.9c0.2-0.7,0.4-1.3,0.6-2C122.1,195,122,195.5,121,195.9z"/>
</g>
</svg>
